<?xml version="1.0" encoding="UTF-8" standalone="no"?>
<!DOCTYPE svg PUBLIC "-//W3C//DTD SVG 1.1//EN"
 "http://www.w3.org/Graphics/SVG/1.1/DTD/svg11.dtd">
<!-- Generated by graphviz version 2.40.1 (20161225.0304)
 -->
<!-- Title: controllers_diagram Pages: 1 -->
<svg width="376pt" height="399pt"
 viewBox="0.00 0.00 376.43 399.00" xmlns="http://www.w3.org/2000/svg" xmlns:xlink="http://www.w3.org/1999/xlink">
<g id="graph0" class="graph" transform="scale(1 1) rotate(0) translate(4 395)">
<title>controllers_diagram</title>
<polygon fill="transparent" stroke="transparent" points="-4,4 -4,-395 372.4277,-395 372.4277,4 -4,4"/>
<!-- _diagram_info -->
<g id="node1" class="node">
<title>_diagram_info</title>
<text text-anchor="start" x="144" y="-109.6" font-family="Times,serif" font-size="13.00" fill="#000000">Controllers diagram</text>
<text text-anchor="start" x="144" y="-96.6" font-family="Times,serif" font-size="13.00" fill="#000000">Date: Mar 06 2018 &#45; 14:28</text>
<text text-anchor="start" x="144" y="-83.6" font-family="Times,serif" font-size="13.00" fill="#000000">Migration version: 20180306133113</text>
<text text-anchor="start" x="144" y="-70.6" font-family="Times,serif" font-size="13.00" fill="#000000">Generated by RailRoady 1.5.3</text>
<text text-anchor="start" x="144" y="-57.6" font-family="Times,serif" font-size="13.00" fill="#000000">http://railroady.prestonlee.com</text>
</g>
<!-- ApplicationController -->
<g id="node2" class="node">
<title>ApplicationController</title>
<path fill="none" stroke="#000000" d="M148,-153.5C148,-153.5 321.9316,-153.5 321.9316,-153.5 327.9316,-153.5 333.9316,-159.5 333.9316,-165.5 333.9316,-165.5 333.9316,-231.5 333.9316,-231.5 333.9316,-237.5 327.9316,-243.5 321.9316,-243.5 321.9316,-243.5 148,-243.5 148,-243.5 142,-243.5 136,-237.5 136,-231.5 136,-231.5 136,-165.5 136,-165.5 136,-159.5 142,-153.5 148,-153.5"/>
<text text-anchor="middle" x="234.9658" y="-228.3" font-family="Times,serif" font-size="14.00" fill="#000000">ApplicationController</text>
<polyline fill="none" stroke="#000000" points="136,-221.5 333.9316,-221.5 "/>
<polyline fill="none" stroke="#000000" points="136,-197.5 333.9316,-197.5 "/>
<text text-anchor="start" x="144" y="-182.3" font-family="Times,serif" font-size="14.00" fill="#000000">configure_permitted_parameters</text>
<polyline fill="none" stroke="#000000" points="136,-175.5 333.9316,-175.5 "/>
<text text-anchor="start" x="144" y="-160.3" font-family="Times,serif" font-size="14.00" fill="#000000">_layout</text>
</g>
<!-- HiresController -->
<g id="node3" class="node">
<title>HiresController</title>
<path fill="none" stroke="#000000" d="M12,-.5C12,-.5 91.8691,-.5 91.8691,-.5 97.8691,-.5 103.8691,-6.5 103.8691,-12.5 103.8691,-12.5 103.8691,-218.5 103.8691,-218.5 103.8691,-224.5 97.8691,-230.5 91.8691,-230.5 91.8691,-230.5 12,-230.5 12,-230.5 6,-230.5 0,-224.5 0,-218.5 0,-218.5 0,-12.5 0,-12.5 0,-6.5 6,-.5 12,-.5"/>
<text text-anchor="middle" x="51.9346" y="-215.3" font-family="Times,serif" font-size="14.00" fill="#000000">HiresController</text>
<polyline fill="none" stroke="#000000" points="0,-208.5 103.8691,-208.5 "/>
<text text-anchor="start" x="8" y="-193.3" font-family="Times,serif" font-size="14.00" fill="#000000">update</text>
<text text-anchor="start" x="8" y="-179.3" font-family="Times,serif" font-size="14.00" fill="#000000">current_hires</text>
<text text-anchor="start" x="8" y="-165.3" font-family="Times,serif" font-size="14.00" fill="#000000">edit</text>
<text text-anchor="start" x="8" y="-151.3" font-family="Times,serif" font-size="14.00" fill="#000000">future_hires</text>
<text text-anchor="start" x="8" y="-137.3" font-family="Times,serif" font-size="14.00" fill="#000000">index</text>
<text text-anchor="start" x="8" y="-123.3" font-family="Times,serif" font-size="14.00" fill="#000000">new</text>
<text text-anchor="start" x="8" y="-109.3" font-family="Times,serif" font-size="14.00" fill="#000000">past_hires</text>
<text text-anchor="start" x="8" y="-95.3" font-family="Times,serif" font-size="14.00" fill="#000000">set_account</text>
<text text-anchor="start" x="8" y="-81.3" font-family="Times,serif" font-size="14.00" fill="#000000">show</text>
<text text-anchor="start" x="8" y="-67.3" font-family="Times,serif" font-size="14.00" fill="#000000">create</text>
<polyline fill="none" stroke="#000000" points="0,-60.5 103.8691,-60.5 "/>
<polyline fill="none" stroke="#000000" points="0,-36.5 103.8691,-36.5 "/>
<text text-anchor="start" x="8" y="-21.3" font-family="Times,serif" font-size="14.00" fill="#000000">_layout</text>
<text text-anchor="start" x="8" y="-7.3" font-family="Times,serif" font-size="14.00" fill="#000000">hire_params</text>
</g>
<!-- RegistrationsController -->
<g id="node4" class="node">
<title>RegistrationsController</title>
<path fill="none" stroke="#000000" d="M233,-272.5C233,-272.5 356.4277,-272.5 356.4277,-272.5 362.4277,-272.5 368.4277,-278.5 368.4277,-284.5 368.4277,-284.5 368.4277,-378.5 368.4277,-378.5 368.4277,-384.5 362.4277,-390.5 356.4277,-390.5 356.4277,-390.5 233,-390.5 233,-390.5 227,-390.5 221,-384.5 221,-378.5 221,-378.5 221,-284.5 221,-284.5 221,-278.5 227,-272.5 233,-272.5"/>
<text text-anchor="middle" x="294.7139" y="-375.3" font-family="Times,serif" font-size="14.00" fill="#000000">RegistrationsController</text>
<polyline fill="none" stroke="#000000" points="221,-368.5 368.4277,-368.5 "/>
<text text-anchor="start" x="229" y="-353.3" font-family="Times,serif" font-size="14.00" fill="#000000">create</text>
<text text-anchor="start" x="229" y="-339.3" font-family="Times,serif" font-size="14.00" fill="#000000">new</text>
<polyline fill="none" stroke="#000000" points="221,-332.5 368.4277,-332.5 "/>
<polyline fill="none" stroke="#000000" points="221,-308.5 368.4277,-308.5 "/>
<text text-anchor="start" x="229" y="-293.3" font-family="Times,serif" font-size="14.00" fill="#000000">_layout</text>
<text text-anchor="start" x="229" y="-279.3" font-family="Times,serif" font-size="14.00" fill="#000000">strong_params</text>
</g>
</g>
</svg>
