<?xml version="1.0" encoding="UTF-8" standalone="no"?>
<!DOCTYPE svg PUBLIC "-//W3C//DTD SVG 1.1//EN"
 "http://www.w3.org/Graphics/SVG/1.1/DTD/svg11.dtd">
<!-- Generated by graphviz version 2.40.1 (20161225.0304)
 -->
<!-- Title: controllers_diagram Pages: 1 -->
<svg width="667pt" height="745pt"
 viewBox="0.00 0.00 667.43 745.00" xmlns="http://www.w3.org/2000/svg" xmlns:xlink="http://www.w3.org/1999/xlink">
<g id="graph0" class="graph" transform="scale(1 1) rotate(0) translate(4 741)">
<title>controllers_diagram</title>
<polygon fill="transparent" stroke="transparent" points="-4,4 -4,-741 663.4277,-741 663.4277,4 -4,4"/>
<!-- _diagram_info -->
<g id="node1" class="node">
<title>_diagram_info</title>
<text text-anchor="start" x="280" y="-186.6" font-family="Times,serif" font-size="13.00" fill="#000000">Controllers diagram</text>
<text text-anchor="start" x="280" y="-173.6" font-family="Times,serif" font-size="13.00" fill="#000000">Date: Mar 29 2018 &#45; 13:59</text>
<text text-anchor="start" x="280" y="-160.6" font-family="Times,serif" font-size="13.00" fill="#000000">Migration version: 20180322102832</text>
<text text-anchor="start" x="280" y="-147.6" font-family="Times,serif" font-size="13.00" fill="#000000">Generated by RailRoady 1.5.3</text>
<text text-anchor="start" x="280" y="-134.6" font-family="Times,serif" font-size="13.00" fill="#000000">http://railroady.prestonlee.com</text>
</g>
<!-- ApplicationController -->
<g id="node2" class="node">
<title>ApplicationController</title>
<path fill="none" stroke="#000000" d="M348,-432.5C348,-432.5 521.9316,-432.5 521.9316,-432.5 527.9316,-432.5 533.9316,-438.5 533.9316,-444.5 533.9316,-444.5 533.9316,-524.5 533.9316,-524.5 533.9316,-530.5 527.9316,-536.5 521.9316,-536.5 521.9316,-536.5 348,-536.5 348,-536.5 342,-536.5 336,-530.5 336,-524.5 336,-524.5 336,-444.5 336,-444.5 336,-438.5 342,-432.5 348,-432.5"/>
<text text-anchor="middle" x="434.9658" y="-521.3" font-family="Times,serif" font-size="14.00" fill="#000000">ApplicationController</text>
<polyline fill="none" stroke="#000000" points="336,-514.5 533.9316,-514.5 "/>
<polyline fill="none" stroke="#000000" points="336,-490.5 533.9316,-490.5 "/>
<text text-anchor="start" x="344" y="-475.3" font-family="Times,serif" font-size="14.00" fill="#000000">configure_permitted_parameters</text>
<text text-anchor="start" x="344" y="-461.3" font-family="Times,serif" font-size="14.00" fill="#000000">ensure_json_request</text>
<polyline fill="none" stroke="#000000" points="336,-454.5 533.9316,-454.5 "/>
<text text-anchor="start" x="344" y="-439.3" font-family="Times,serif" font-size="14.00" fill="#000000">_layout</text>
</g>
<!-- GroupsController -->
<g id="node3" class="node">
<title>GroupsController</title>
<path fill="none" stroke="#000000" d="M220,-.5C220,-.5 310.7656,-.5 310.7656,-.5 316.7656,-.5 322.7656,-6.5 322.7656,-12.5 322.7656,-12.5 322.7656,-78.5 322.7656,-78.5 322.7656,-84.5 316.7656,-90.5 310.7656,-90.5 310.7656,-90.5 220,-90.5 220,-90.5 214,-90.5 208,-84.5 208,-78.5 208,-78.5 208,-12.5 208,-12.5 208,-6.5 214,-.5 220,-.5"/>
<text text-anchor="middle" x="265.3828" y="-75.3" font-family="Times,serif" font-size="14.00" fill="#000000">GroupsController</text>
<polyline fill="none" stroke="#000000" points="208,-68.5 322.7656,-68.5 "/>
<text text-anchor="start" x="216" y="-53.3" font-family="Times,serif" font-size="14.00" fill="#000000">index</text>
<polyline fill="none" stroke="#000000" points="208,-46.5 322.7656,-46.5 "/>
<polyline fill="none" stroke="#000000" points="208,-22.5 322.7656,-22.5 "/>
<text text-anchor="start" x="216" y="-7.3" font-family="Times,serif" font-size="14.00" fill="#000000">_layout</text>
</g>
<!-- HiresController -->
<g id="node4" class="node">
<title>HiresController</title>
<path fill="none" stroke="#000000" d="M156,-176.5C156,-176.5 235.8691,-176.5 235.8691,-176.5 241.8691,-176.5 247.8691,-182.5 247.8691,-188.5 247.8691,-188.5 247.8691,-394.5 247.8691,-394.5 247.8691,-400.5 241.8691,-406.5 235.8691,-406.5 235.8691,-406.5 156,-406.5 156,-406.5 150,-406.5 144,-400.5 144,-394.5 144,-394.5 144,-188.5 144,-188.5 144,-182.5 150,-176.5 156,-176.5"/>
<text text-anchor="middle" x="195.9346" y="-391.3" font-family="Times,serif" font-size="14.00" fill="#000000">HiresController</text>
<polyline fill="none" stroke="#000000" points="144,-384.5 247.8691,-384.5 "/>
<text text-anchor="start" x="152" y="-369.3" font-family="Times,serif" font-size="14.00" fill="#000000">update</text>
<text text-anchor="start" x="152" y="-355.3" font-family="Times,serif" font-size="14.00" fill="#000000">current_hires</text>
<text text-anchor="start" x="152" y="-341.3" font-family="Times,serif" font-size="14.00" fill="#000000">edit</text>
<text text-anchor="start" x="152" y="-327.3" font-family="Times,serif" font-size="14.00" fill="#000000">future_hires</text>
<text text-anchor="start" x="152" y="-313.3" font-family="Times,serif" font-size="14.00" fill="#000000">index</text>
<text text-anchor="start" x="152" y="-299.3" font-family="Times,serif" font-size="14.00" fill="#000000">new</text>
<text text-anchor="start" x="152" y="-285.3" font-family="Times,serif" font-size="14.00" fill="#000000">past_hires</text>
<text text-anchor="start" x="152" y="-271.3" font-family="Times,serif" font-size="14.00" fill="#000000">set_hire</text>
<text text-anchor="start" x="152" y="-257.3" font-family="Times,serif" font-size="14.00" fill="#000000">show</text>
<text text-anchor="start" x="152" y="-243.3" font-family="Times,serif" font-size="14.00" fill="#000000">create</text>
<polyline fill="none" stroke="#000000" points="144,-236.5 247.8691,-236.5 "/>
<polyline fill="none" stroke="#000000" points="144,-212.5 247.8691,-212.5 "/>
<text text-anchor="start" x="152" y="-197.3" font-family="Times,serif" font-size="14.00" fill="#000000">_layout</text>
<text text-anchor="start" x="152" y="-183.3" font-family="Times,serif" font-size="14.00" fill="#000000">hire_params</text>
</g>
<!-- ItemPacksController -->
<g id="node5" class="node">
<title>ItemPacksController</title>
<path fill="none" stroke="#000000" d="M284,-240.5C284,-240.5 391.8623,-240.5 391.8623,-240.5 397.8623,-240.5 403.8623,-246.5 403.8623,-252.5 403.8623,-252.5 403.8623,-388.5 403.8623,-388.5 403.8623,-394.5 397.8623,-400.5 391.8623,-400.5 391.8623,-400.5 284,-400.5 284,-400.5 278,-400.5 272,-394.5 272,-388.5 272,-388.5 272,-252.5 272,-252.5 272,-246.5 278,-240.5 284,-240.5"/>
<text text-anchor="middle" x="337.9312" y="-385.3" font-family="Times,serif" font-size="14.00" fill="#000000">ItemPacksController</text>
<polyline fill="none" stroke="#000000" points="272,-378.5 403.8623,-378.5 "/>
<text text-anchor="start" x="280" y="-363.3" font-family="Times,serif" font-size="14.00" fill="#000000">create</text>
<text text-anchor="start" x="280" y="-349.3" font-family="Times,serif" font-size="14.00" fill="#000000">index</text>
<text text-anchor="start" x="280" y="-335.3" font-family="Times,serif" font-size="14.00" fill="#000000">new</text>
<text text-anchor="start" x="280" y="-321.3" font-family="Times,serif" font-size="14.00" fill="#000000">set_itempack</text>
<text text-anchor="start" x="280" y="-307.3" font-family="Times,serif" font-size="14.00" fill="#000000">show</text>
<polyline fill="none" stroke="#000000" points="272,-300.5 403.8623,-300.5 "/>
<polyline fill="none" stroke="#000000" points="272,-276.5 403.8623,-276.5 "/>
<text text-anchor="start" x="280" y="-261.3" font-family="Times,serif" font-size="14.00" fill="#000000">_layout</text>
<text text-anchor="start" x="280" y="-247.3" font-family="Times,serif" font-size="14.00" fill="#000000">itempack_params</text>
</g>
<!-- ItemsController -->
<g id="node6" class="node">
<title>ItemsController</title>
<path fill="none" stroke="#000000" d="M12,-304.5C12,-304.5 92.6484,-304.5 92.6484,-304.5 98.6484,-304.5 104.6484,-310.5 104.6484,-316.5 104.6484,-316.5 104.6484,-452.5 104.6484,-452.5 104.6484,-458.5 98.6484,-464.5 92.6484,-464.5 92.6484,-464.5 12,-464.5 12,-464.5 6,-464.5 0,-458.5 0,-452.5 0,-452.5 0,-316.5 0,-316.5 0,-310.5 6,-304.5 12,-304.5"/>
<text text-anchor="middle" x="52.3242" y="-449.3" font-family="Times,serif" font-size="14.00" fill="#000000">ItemsController</text>
<polyline fill="none" stroke="#000000" points="0,-442.5 104.6484,-442.5 "/>
<text text-anchor="start" x="8" y="-427.3" font-family="Times,serif" font-size="14.00" fill="#000000">create</text>
<text text-anchor="start" x="8" y="-413.3" font-family="Times,serif" font-size="14.00" fill="#000000">index</text>
<text text-anchor="start" x="8" y="-399.3" font-family="Times,serif" font-size="14.00" fill="#000000">new</text>
<text text-anchor="start" x="8" y="-385.3" font-family="Times,serif" font-size="14.00" fill="#000000">set_item</text>
<text text-anchor="start" x="8" y="-371.3" font-family="Times,serif" font-size="14.00" fill="#000000">show</text>
<polyline fill="none" stroke="#000000" points="0,-364.5 104.6484,-364.5 "/>
<polyline fill="none" stroke="#000000" points="0,-340.5 104.6484,-340.5 "/>
<text text-anchor="start" x="8" y="-325.3" font-family="Times,serif" font-size="14.00" fill="#000000">_layout</text>
<text text-anchor="start" x="8" y="-311.3" font-family="Times,serif" font-size="14.00" fill="#000000">item_params</text>
</g>
<!-- LoansController -->
<g id="node7" class="node">
<title>LoansController</title>
<path fill="none" stroke="#000000" d="M12,-112.5C12,-112.5 95.7588,-112.5 95.7588,-112.5 101.7588,-112.5 107.7588,-118.5 107.7588,-124.5 107.7588,-124.5 107.7588,-260.5 107.7588,-260.5 107.7588,-266.5 101.7588,-272.5 95.7588,-272.5 95.7588,-272.5 12,-272.5 12,-272.5 6,-272.5 0,-266.5 0,-260.5 0,-260.5 0,-124.5 0,-124.5 0,-118.5 6,-112.5 12,-112.5"/>
<text text-anchor="middle" x="53.8794" y="-257.3" font-family="Times,serif" font-size="14.00" fill="#000000">LoansController</text>
<polyline fill="none" stroke="#000000" points="0,-250.5 107.7588,-250.5 "/>
<text text-anchor="start" x="8" y="-235.3" font-family="Times,serif" font-size="14.00" fill="#000000">create</text>
<text text-anchor="start" x="8" y="-221.3" font-family="Times,serif" font-size="14.00" fill="#000000">index</text>
<text text-anchor="start" x="8" y="-207.3" font-family="Times,serif" font-size="14.00" fill="#000000">new</text>
<text text-anchor="start" x="8" y="-193.3" font-family="Times,serif" font-size="14.00" fill="#000000">set_loan</text>
<text text-anchor="start" x="8" y="-179.3" font-family="Times,serif" font-size="14.00" fill="#000000">show</text>
<polyline fill="none" stroke="#000000" points="0,-172.5 107.7588,-172.5 "/>
<polyline fill="none" stroke="#000000" points="0,-148.5 107.7588,-148.5 "/>
<text text-anchor="start" x="8" y="-133.3" font-family="Times,serif" font-size="14.00" fill="#000000">_layout</text>
<text text-anchor="start" x="8" y="-119.3" font-family="Times,serif" font-size="14.00" fill="#000000">loan_params</text>
</g>
<!-- MultistocksController -->
<g id="node8" class="node">
<title>MultistocksController</title>
<path fill="none" stroke="#000000" d="M172,-432.5C172,-432.5 287.6621,-432.5 287.6621,-432.5 293.6621,-432.5 299.6621,-438.5 299.6621,-444.5 299.6621,-444.5 299.6621,-580.5 299.6621,-580.5 299.6621,-586.5 293.6621,-592.5 287.6621,-592.5 287.6621,-592.5 172,-592.5 172,-592.5 166,-592.5 160,-586.5 160,-580.5 160,-580.5 160,-444.5 160,-444.5 160,-438.5 166,-432.5 172,-432.5"/>
<text text-anchor="middle" x="229.8311" y="-577.3" font-family="Times,serif" font-size="14.00" fill="#000000">MultistocksController</text>
<polyline fill="none" stroke="#000000" points="160,-570.5 299.6621,-570.5 "/>
<text text-anchor="start" x="168" y="-555.3" font-family="Times,serif" font-size="14.00" fill="#000000">create</text>
<text text-anchor="start" x="168" y="-541.3" font-family="Times,serif" font-size="14.00" fill="#000000">index</text>
<text text-anchor="start" x="168" y="-527.3" font-family="Times,serif" font-size="14.00" fill="#000000">new</text>
<text text-anchor="start" x="168" y="-513.3" font-family="Times,serif" font-size="14.00" fill="#000000">set_multistock</text>
<text text-anchor="start" x="168" y="-499.3" font-family="Times,serif" font-size="14.00" fill="#000000">show</text>
<polyline fill="none" stroke="#000000" points="160,-492.5 299.6621,-492.5 "/>
<polyline fill="none" stroke="#000000" points="160,-468.5 299.6621,-468.5 "/>
<text text-anchor="start" x="168" y="-453.3" font-family="Times,serif" font-size="14.00" fill="#000000">_layout</text>
<text text-anchor="start" x="168" y="-439.3" font-family="Times,serif" font-size="14.00" fill="#000000">multistock_params</text>
</g>
<!-- OrdersController -->
<g id="node9" class="node">
<title>OrdersController</title>
<path fill="none" stroke="#000000" d="M444,-240.5C444,-240.5 531.6416,-240.5 531.6416,-240.5 537.6416,-240.5 543.6416,-246.5 543.6416,-252.5 543.6416,-252.5 543.6416,-388.5 543.6416,-388.5 543.6416,-394.5 537.6416,-400.5 531.6416,-400.5 531.6416,-400.5 444,-400.5 444,-400.5 438,-400.5 432,-394.5 432,-388.5 432,-388.5 432,-252.5 432,-252.5 432,-246.5 438,-240.5 444,-240.5"/>
<text text-anchor="middle" x="487.8208" y="-385.3" font-family="Times,serif" font-size="14.00" fill="#000000">OrdersController</text>
<polyline fill="none" stroke="#000000" points="432,-378.5 543.6416,-378.5 "/>
<text text-anchor="start" x="440" y="-363.3" font-family="Times,serif" font-size="14.00" fill="#000000">create</text>
<text text-anchor="start" x="440" y="-349.3" font-family="Times,serif" font-size="14.00" fill="#000000">index</text>
<text text-anchor="start" x="440" y="-335.3" font-family="Times,serif" font-size="14.00" fill="#000000">new</text>
<text text-anchor="start" x="440" y="-321.3" font-family="Times,serif" font-size="14.00" fill="#000000">set_order</text>
<text text-anchor="start" x="440" y="-307.3" font-family="Times,serif" font-size="14.00" fill="#000000">show</text>
<polyline fill="none" stroke="#000000" points="432,-300.5 543.6416,-300.5 "/>
<polyline fill="none" stroke="#000000" points="432,-276.5 543.6416,-276.5 "/>
<text text-anchor="start" x="440" y="-261.3" font-family="Times,serif" font-size="14.00" fill="#000000">_layout</text>
<text text-anchor="start" x="440" y="-247.3" font-family="Times,serif" font-size="14.00" fill="#000000">order_params</text>
</g>
<!-- PacksController -->
<g id="node10" class="node">
<title>PacksController</title>
<path fill="none" stroke="#000000" d="M492,-576.5C492,-576.5 574.207,-576.5 574.207,-576.5 580.207,-576.5 586.207,-582.5 586.207,-588.5 586.207,-588.5 586.207,-724.5 586.207,-724.5 586.207,-730.5 580.207,-736.5 574.207,-736.5 574.207,-736.5 492,-736.5 492,-736.5 486,-736.5 480,-730.5 480,-724.5 480,-724.5 480,-588.5 480,-588.5 480,-582.5 486,-576.5 492,-576.5"/>
<text text-anchor="middle" x="533.1035" y="-721.3" font-family="Times,serif" font-size="14.00" fill="#000000">PacksController</text>
<polyline fill="none" stroke="#000000" points="480,-714.5 586.207,-714.5 "/>
<text text-anchor="start" x="488" y="-699.3" font-family="Times,serif" font-size="14.00" fill="#000000">create</text>
<text text-anchor="start" x="488" y="-685.3" font-family="Times,serif" font-size="14.00" fill="#000000">index</text>
<text text-anchor="start" x="488" y="-671.3" font-family="Times,serif" font-size="14.00" fill="#000000">new</text>
<text text-anchor="start" x="488" y="-657.3" font-family="Times,serif" font-size="14.00" fill="#000000">set_pack</text>
<text text-anchor="start" x="488" y="-643.3" font-family="Times,serif" font-size="14.00" fill="#000000">show</text>
<polyline fill="none" stroke="#000000" points="480,-636.5 586.207,-636.5 "/>
<polyline fill="none" stroke="#000000" points="480,-612.5 586.207,-612.5 "/>
<text text-anchor="start" x="488" y="-597.3" font-family="Times,serif" font-size="14.00" fill="#000000">_layout</text>
<text text-anchor="start" x="488" y="-583.3" font-family="Times,serif" font-size="14.00" fill="#000000">pack_params</text>
</g>
<!-- RegistrationsController -->
<g id="node11" class="node">
<title>RegistrationsController</title>
<path fill="none" stroke="#000000" d="M524,-.5C524,-.5 647.4277,-.5 647.4277,-.5 653.4277,-.5 659.4277,-6.5 659.4277,-12.5 659.4277,-12.5 659.4277,-106.5 659.4277,-106.5 659.4277,-112.5 653.4277,-118.5 647.4277,-118.5 647.4277,-118.5 524,-118.5 524,-118.5 518,-118.5 512,-112.5 512,-106.5 512,-106.5 512,-12.5 512,-12.5 512,-6.5 518,-.5 524,-.5"/>
<text text-anchor="middle" x="585.7139" y="-103.3" font-family="Times,serif" font-size="14.00" fill="#000000">RegistrationsController</text>
<polyline fill="none" stroke="#000000" points="512,-96.5 659.4277,-96.5 "/>
<text text-anchor="start" x="520" y="-81.3" font-family="Times,serif" font-size="14.00" fill="#000000">create</text>
<text text-anchor="start" x="520" y="-67.3" font-family="Times,serif" font-size="14.00" fill="#000000">new</text>
<polyline fill="none" stroke="#000000" points="512,-60.5 659.4277,-60.5 "/>
<polyline fill="none" stroke="#000000" points="512,-36.5 659.4277,-36.5 "/>
<text text-anchor="start" x="520" y="-21.3" font-family="Times,serif" font-size="14.00" fill="#000000">_layout</text>
<text text-anchor="start" x="520" y="-7.3" font-family="Times,serif" font-size="14.00" fill="#000000">strong_params</text>
</g>
<!-- SizesController -->
<g id="node12" class="node">
<title>SizesController</title>
<path fill="none" stroke="#000000" d="M364,-576.5C364,-576.5 443.0967,-576.5 443.0967,-576.5 449.0967,-576.5 455.0967,-582.5 455.0967,-588.5 455.0967,-588.5 455.0967,-724.5 455.0967,-724.5 455.0967,-730.5 449.0967,-736.5 443.0967,-736.5 443.0967,-736.5 364,-736.5 364,-736.5 358,-736.5 352,-730.5 352,-724.5 352,-724.5 352,-588.5 352,-588.5 352,-582.5 358,-576.5 364,-576.5"/>
<text text-anchor="middle" x="403.5483" y="-721.3" font-family="Times,serif" font-size="14.00" fill="#000000">SizesController</text>
<polyline fill="none" stroke="#000000" points="352,-714.5 455.0967,-714.5 "/>
<text text-anchor="start" x="360" y="-699.3" font-family="Times,serif" font-size="14.00" fill="#000000">create</text>
<text text-anchor="start" x="360" y="-685.3" font-family="Times,serif" font-size="14.00" fill="#000000">index</text>
<text text-anchor="start" x="360" y="-671.3" font-family="Times,serif" font-size="14.00" fill="#000000">new</text>
<text text-anchor="start" x="360" y="-657.3" font-family="Times,serif" font-size="14.00" fill="#000000">set_size</text>
<text text-anchor="start" x="360" y="-643.3" font-family="Times,serif" font-size="14.00" fill="#000000">show</text>
<polyline fill="none" stroke="#000000" points="352,-636.5 455.0967,-636.5 "/>
<polyline fill="none" stroke="#000000" points="352,-612.5 455.0967,-612.5 "/>
<text text-anchor="start" x="360" y="-597.3" font-family="Times,serif" font-size="14.00" fill="#000000">_layout</text>
<text text-anchor="start" x="360" y="-583.3" font-family="Times,serif" font-size="14.00" fill="#000000">size_params</text>
</g>
<!-- StocksController -->
<g id="node13" class="node">
<title>StocksController</title>
<path fill="none" stroke="#000000" d="M28,-496.5C28,-496.5 114.8828,-496.5 114.8828,-496.5 120.8828,-496.5 126.8828,-502.5 126.8828,-508.5 126.8828,-508.5 126.8828,-644.5 126.8828,-644.5 126.8828,-650.5 120.8828,-656.5 114.8828,-656.5 114.8828,-656.5 28,-656.5 28,-656.5 22,-656.5 16,-650.5 16,-644.5 16,-644.5 16,-508.5 16,-508.5 16,-502.5 22,-496.5 28,-496.5"/>
<text text-anchor="middle" x="71.4414" y="-641.3" font-family="Times,serif" font-size="14.00" fill="#000000">StocksController</text>
<polyline fill="none" stroke="#000000" points="16,-634.5 126.8828,-634.5 "/>
<text text-anchor="start" x="24" y="-619.3" font-family="Times,serif" font-size="14.00" fill="#000000">create</text>
<text text-anchor="start" x="24" y="-605.3" font-family="Times,serif" font-size="14.00" fill="#000000">index</text>
<text text-anchor="start" x="24" y="-591.3" font-family="Times,serif" font-size="14.00" fill="#000000">new</text>
<text text-anchor="start" x="24" y="-577.3" font-family="Times,serif" font-size="14.00" fill="#000000">set_stock</text>
<text text-anchor="start" x="24" y="-563.3" font-family="Times,serif" font-size="14.00" fill="#000000">show</text>
<polyline fill="none" stroke="#000000" points="16,-556.5 126.8828,-556.5 "/>
<polyline fill="none" stroke="#000000" points="16,-532.5 126.8828,-532.5 "/>
<text text-anchor="start" x="24" y="-517.3" font-family="Times,serif" font-size="14.00" fill="#000000">_layout</text>
<text text-anchor="start" x="24" y="-503.3" font-family="Times,serif" font-size="14.00" fill="#000000">stock_params</text>
</g>
</g>
</svg>
