<?xml version="1.0" encoding="UTF-8" standalone="no"?>
<!DOCTYPE svg PUBLIC "-//W3C//DTD SVG 1.1//EN"
 "http://www.w3.org/Graphics/SVG/1.1/DTD/svg11.dtd">
<!-- Generated by graphviz version 2.40.1 (20161225.0304)
 -->
<!-- Title: models_diagram Pages: 1 -->
<svg width="666pt" height="297pt"
 viewBox="0.00 0.00 665.69 297.00" xmlns="http://www.w3.org/2000/svg" xmlns:xlink="http://www.w3.org/1999/xlink">
<g id="graph0" class="graph" transform="scale(1 1) rotate(0) translate(4 293)">
<title>models_diagram</title>
<polygon fill="transparent" stroke="transparent" points="-4,4 -4,-293 661.6877,-293 661.6877,4 -4,4"/>
<!-- _diagram_info -->
<g id="node1" class="node">
<title>_diagram_info</title>
<text text-anchor="start" x="8" y="-274.6" font-family="Times,serif" font-size="13.00" fill="#000000">Models diagram</text>
<text text-anchor="start" x="8" y="-261.6" font-family="Times,serif" font-size="13.00" fill="#000000">Date: Mar 29 2018 &#45; 13:59</text>
<text text-anchor="start" x="8" y="-248.6" font-family="Times,serif" font-size="13.00" fill="#000000">Migration version: 20180322102832</text>
<text text-anchor="start" x="8" y="-235.6" font-family="Times,serif" font-size="13.00" fill="#000000">Generated by RailRoady 1.5.3</text>
<text text-anchor="start" x="8" y="-222.6" font-family="Times,serif" font-size="13.00" fill="#000000">http://railroady.prestonlee.com</text>
</g>
<!-- ApplicationRecord -->
<g id="node2" class="node">
<title>ApplicationRecord</title>
<ellipse fill="none" stroke="#000000" cx="302.6877" cy="-252.5" rx="77.2916" ry="18"/>
<text text-anchor="middle" x="302.6877" y="-248.3" font-family="Times,serif" font-size="14.00" fill="#000000">ApplicationRecord</text>
</g>
<!-- Group -->
<g id="node3" class="node">
<title>Group</title>
<ellipse fill="none" stroke="#000000" cx="603.6877" cy="-252.5" rx="32.9081" ry="18"/>
<text text-anchor="middle" x="603.6877" y="-248.3" font-family="Times,serif" font-size="14.00" fill="#000000">Group</text>
</g>
<!-- Hire -->
<g id="node4" class="node">
<title>Hire</title>
<ellipse fill="none" stroke="#000000" cx="603.6877" cy="-90" rx="27" ry="18"/>
<text text-anchor="middle" x="603.6877" y="-85.8" font-family="Times,serif" font-size="14.00" fill="#000000">Hire</text>
</g>
<!-- Group&#45;&gt;Hire -->
<g id="edge2" class="edge">
<title>Group&#45;&gt;Hire</title>
<path fill="none" stroke="#34fe68" d="M599.0807,-226.277C595.8038,-204.3023 592.3618,-172.1041 594.6877,-144 595.3933,-135.4753 596.7151,-126.2703 598.1327,-117.917"/>
<ellipse fill="none" stroke="#34fe68" cx="599.7433" cy="-230.5024" rx="4" ry="4"/>
<polygon fill="#34fe68" stroke="#34fe68" points="598.1631,-117.7478 604.3687,-108.7067 599.0517,-112.8274 599.9403,-107.9069 599.9403,-107.9069 599.9403,-107.9069 599.0517,-112.8274 595.5119,-107.1072 598.1631,-117.7478 598.1631,-117.7478"/>
</g>
<!-- User -->
<g id="node13" class="node">
<title>User</title>
<ellipse fill="none" stroke="#000000" cx="630.6877" cy="-162" rx="27" ry="18"/>
<text text-anchor="middle" x="630.6877" y="-157.8" font-family="Times,serif" font-size="14.00" fill="#000000">User</text>
</g>
<!-- Group&#45;&gt;User -->
<g id="edge1" class="edge">
<title>Group&#45;&gt;User</title>
<path fill="none" stroke="#f73abb" d="M611.3816,-226.7112C614.8397,-215.1202 618.9258,-201.4245 622.4463,-189.6242"/>
<ellipse fill="none" stroke="#f73abb" cx="610.1657" cy="-230.7871" rx="4" ry="4"/>
<polygon fill="#f73abb" stroke="#f73abb" points="622.5055,-189.4254 629.6767,-181.1293 623.935,-184.6341 625.3645,-179.8427 625.3645,-179.8427 625.3645,-179.8427 623.935,-184.6341 621.0523,-178.5562 622.5055,-189.4254 622.5055,-189.4254"/>
</g>
<!-- Loan -->
<g id="node7" class="node">
<title>Loan</title>
<ellipse fill="none" stroke="#000000" cx="536.6877" cy="-18" rx="28.0565" ry="18"/>
<text text-anchor="middle" x="536.6877" y="-13.8" font-family="Times,serif" font-size="14.00" fill="#000000">Loan</text>
</g>
<!-- Hire&#45;&gt;Loan -->
<g id="edge3" class="edge">
<title>Hire&#45;&gt;Loan</title>
<path fill="none" stroke="#8fa508" d="M583.6034,-68.4168C575.5391,-59.7508 566.2325,-49.7496 558.045,-40.9511"/>
<ellipse fill="none" stroke="#8fa508" cx="586.4248" cy="-71.4488" rx="4" ry="4"/>
<polygon fill="#8fa508" stroke="#8fa508" points="558.0097,-40.9132 554.4917,-30.5269 554.6035,-37.2528 551.1974,-33.5924 551.1974,-33.5924 551.1974,-33.5924 554.6035,-37.2528 547.9031,-36.658 558.0097,-40.9132 558.0097,-40.9132"/>
</g>
<!-- Order -->
<g id="node9" class="node">
<title>Order</title>
<ellipse fill="none" stroke="#000000" cx="613.6877" cy="-18" rx="30.9619" ry="18"/>
<text text-anchor="middle" x="613.6877" y="-13.8" font-family="Times,serif" font-size="14.00" fill="#000000">Order</text>
</g>
<!-- Hire&#45;&gt;Order -->
<g id="edge4" class="edge">
<title>Hire&#45;&gt;Order</title>
<path fill="none" stroke="#09d0f5" d="M607.3246,-63.8144C608.1134,-58.1355 608.9511,-52.1039 609.7508,-46.3461"/>
<ellipse fill="none" stroke="#09d0f5" cx="606.7615" cy="-67.8694" rx="4" ry="4"/>
<polygon fill="#09d0f5" stroke="#09d0f5" points="609.7546,-46.3182 615.5876,-37.0324 610.4425,-41.3657 611.1303,-36.4133 611.1303,-36.4133 611.1303,-36.4133 610.4425,-41.3657 606.6731,-35.7942 609.7546,-46.3182 609.7546,-46.3182"/>
</g>
<!-- Item -->
<g id="node5" class="node">
<title>Item</title>
<ellipse fill="none" stroke="#000000" cx="424.6877" cy="-162" rx="27" ry="18"/>
<text text-anchor="middle" x="424.6877" y="-157.8" font-family="Times,serif" font-size="14.00" fill="#000000">Item</text>
</g>
<!-- ItemPack -->
<g id="node6" class="node">
<title>ItemPack</title>
<ellipse fill="none" stroke="#000000" cx="331.6877" cy="-18" rx="43.506" ry="18"/>
<text text-anchor="middle" x="331.6877" y="-13.8" font-family="Times,serif" font-size="14.00" fill="#000000">ItemPack</text>
</g>
<!-- Item&#45;&gt;ItemPack -->
<g id="edge7" class="edge">
<title>Item&#45;&gt;ItemPack</title>
<path fill="none" stroke="#924eb6" d="M395.0444,-147.2668C379.5167,-138.0569 361.5268,-124.7543 350.6877,-108 338.8131,-89.645 334.2051,-65.1849 332.4878,-46.3976"/>
<ellipse fill="none" stroke="#924eb6" cx="398.9483" cy="-149.4822" rx="4" ry="4"/>
<polygon fill="#924eb6" stroke="#924eb6" points="332.483,-46.326 336.2796,-36.0384 332.1367,-41.338 331.7904,-36.3501 331.7904,-36.3501 331.7904,-36.3501 332.1367,-41.338 327.3012,-36.6617 332.483,-46.326 332.483,-46.326"/>
</g>
<!-- Item&#45;&gt;Order -->
<g id="edge5" class="edge">
<title>Item&#45;&gt;Order</title>
<path fill="none" stroke="#4b09a0" d="M450.5338,-144.4977C465.6242,-134.1248 484.9327,-120.586 501.6877,-108 531.8846,-85.3167 565.5393,-57.9835 587.9991,-39.4349"/>
<ellipse fill="none" stroke="#4b09a0" cx="447.2218" cy="-146.7658" rx="4" ry="4"/>
<polygon fill="#4b09a0" stroke="#4b09a0" points="588.0386,-39.4023 598.6105,-36.4893 591.8893,-36.2129 595.7401,-33.0236 595.7401,-33.0236 595.7401,-33.0236 591.8893,-36.2129 592.8697,-29.5579 588.0386,-39.4023 588.0386,-39.4023"/>
</g>
<!-- Pack -->
<g id="node10" class="node">
<title>Pack</title>
<ellipse fill="none" stroke="#000000" cx="386.6877" cy="-90" rx="27.0958" ry="18"/>
<text text-anchor="middle" x="386.6877" y="-85.8" font-family="Times,serif" font-size="14.00" fill="#000000">Pack</text>
</g>
<!-- Item&#45;&gt;Pack -->
<g id="edge8" class="edge">
<title>Item&#45;&gt;Pack</title>
<path fill="none" stroke="#ddef83" d="M410.9168,-135.9077C407.5596,-129.5468 403.9663,-122.7382 400.6024,-116.3647"/>
<polygon fill="#ddef83" stroke="#ddef83" points="411.0146,-136.0931 411.7025,-147.0374 413.3485,-140.5151 415.6823,-144.937 415.6823,-144.937 415.6823,-144.937 413.3485,-140.5151 419.662,-142.8366 411.0146,-136.0931 411.0146,-136.0931"/>
<polygon fill="#ddef83" stroke="#ddef83" points="400.5602,-116.2845 399.8723,-105.3402 398.2264,-111.8626 395.8925,-107.4407 395.8925,-107.4407 395.8925,-107.4407 398.2264,-111.8626 391.9128,-109.5411 400.5602,-116.2845 400.5602,-116.2845"/>
</g>
<!-- Stock -->
<g id="node12" class="node">
<title>Stock</title>
<ellipse fill="none" stroke="#000000" cx="462.6877" cy="-90" rx="30.0035" ry="18"/>
<text text-anchor="middle" x="462.6877" y="-85.8" font-family="Times,serif" font-size="14.00" fill="#000000">Stock</text>
</g>
<!-- Item&#45;&gt;Stock -->
<g id="edge6" class="edge">
<title>Item&#45;&gt;Stock</title>
<path fill="none" stroke="#66cd5f" d="M437.5283,-137.6706C441.1261,-130.8537 445.0543,-123.4108 448.7144,-116.4759"/>
<ellipse fill="none" stroke="#66cd5f" cx="435.5603" cy="-141.3995" rx="4" ry="4"/>
<polygon fill="#66cd5f" stroke="#66cd5f" points="448.8153,-116.2845 457.4627,-109.5411 451.1491,-111.8626 453.4829,-107.4407 453.4829,-107.4407 453.4829,-107.4407 451.1491,-111.8626 449.5032,-105.3402 448.8153,-116.2845 448.8153,-116.2845"/>
</g>
<!-- Multistock -->
<g id="node8" class="node">
<title>Multistock</title>
<ellipse fill="none" stroke="#000000" cx="441.6877" cy="-18" rx="48.36" ry="18"/>
<text text-anchor="middle" x="441.6877" y="-13.8" font-family="Times,serif" font-size="14.00" fill="#000000">Multistock</text>
</g>
<!-- Pack&#45;&gt;ItemPack -->
<g id="edge9" class="edge">
<title>Pack&#45;&gt;ItemPack</title>
<path fill="none" stroke="#f6ee50" d="M369.2417,-67.1615C363.4496,-59.5791 356.9675,-51.0934 351.0404,-43.3344"/>
<ellipse fill="none" stroke="#f6ee50" cx="371.7792" cy="-70.4834" rx="4" ry="4"/>
<polygon fill="#f6ee50" stroke="#f6ee50" points="350.9561,-43.224 348.4617,-32.5456 347.9209,-39.2506 344.8857,-35.2773 344.8857,-35.2773 344.8857,-35.2773 347.9209,-39.2506 341.3096,-38.009 350.9561,-43.224 350.9561,-43.224"/>
</g>
<!-- Size -->
<g id="node11" class="node">
<title>Size</title>
<ellipse fill="none" stroke="#000000" cx="424.6877" cy="-252.5" rx="27" ry="18"/>
<text text-anchor="middle" x="424.6877" y="-248.3" font-family="Times,serif" font-size="14.00" fill="#000000">Size</text>
</g>
<!-- Size&#45;&gt;Item -->
<g id="edge10" class="edge">
<title>Size&#45;&gt;Item</title>
<path fill="none" stroke="#2fee09" d="M424.6877,-225.9687C424.6877,-214.8402 424.6877,-201.878 424.6877,-190.5429"/>
<ellipse fill="none" stroke="#2fee09" cx="424.6878" cy="-230.186" rx="4" ry="4"/>
<polygon fill="#2fee09" stroke="#2fee09" points="424.6878,-190.2868 429.1877,-180.2867 424.6878,-185.2868 424.6877,-180.2868 424.6877,-180.2868 424.6877,-180.2868 424.6878,-185.2868 420.1877,-180.2868 424.6878,-190.2868 424.6878,-190.2868"/>
</g>
<!-- Stock&#45;&gt;Loan -->
<g id="edge11" class="edge">
<title>Stock&#45;&gt;Loan</title>
<path fill="none" stroke="#6e4066" d="M484.6342,-68.6467C494.364,-59.1798 505.7682,-48.0839 515.4181,-38.6948"/>
<ellipse fill="none" stroke="#6e4066" cx="481.6116" cy="-71.5876" rx="4" ry="4"/>
<ellipse fill="#6e4066" stroke="#6e4066" cx="518.3024" cy="-35.8885" rx="4" ry="4"/>
</g>
<!-- Stock&#45;&gt;Multistock -->
<g id="edge12" class="edge">
<title>Stock&#45;&gt;Multistock</title>
<path fill="none" stroke="#1894e6" d="M455.1999,-64.3275C453.2849,-57.7615 451.2238,-50.6949 449.3024,-44.1073"/>
<ellipse fill="none" stroke="#1894e6" cx="456.3767" cy="-68.3622" rx="4" ry="4"/>
<ellipse fill="#1894e6" stroke="#1894e6" cx="448.0849" cy="-39.9331" rx="4" ry="4"/>
</g>
<!-- User&#45;&gt;Hire -->
<g id="edge13" class="edge">
<title>User&#45;&gt;Hire</title>
<path fill="none" stroke="#cd9498" d="M620.472,-134.7579C618.3388,-129.0696 616.0893,-123.0707 613.9543,-117.3775"/>
<polygon fill="#cd9498" stroke="#cd9498" points="620.5023,-134.8389 619.8001,-145.7823 622.2579,-139.5206 624.0136,-144.2022 624.0136,-144.2022 624.0136,-144.2022 622.2579,-139.5206 628.2271,-142.6222 620.5023,-134.8389 620.5023,-134.8389"/>
<polygon fill="#cd9498" stroke="#cd9498" points="613.7964,-116.9563 614.4986,-106.0129 612.0408,-112.2747 610.2851,-107.593 610.2851,-107.593 610.2851,-107.593 612.0408,-112.2747 606.0716,-109.1731 613.7964,-116.9563 613.7964,-116.9563"/>
</g>
</g>
</svg>
