<?xml version="1.0" encoding="UTF-8" standalone="no"?>
<!DOCTYPE svg PUBLIC "-//W3C//DTD SVG 1.1//EN"
 "http://www.w3.org/Graphics/SVG/1.1/DTD/svg11.dtd">
<!-- Generated by graphviz version 2.40.1 (20161225.0304)
 -->
<!-- Title: models_diagram Pages: 1 -->
<svg width="899pt" height="982pt"
 viewBox="0.00 0.00 898.73 982.00" xmlns="http://www.w3.org/2000/svg" xmlns:xlink="http://www.w3.org/1999/xlink">
<g id="graph0" class="graph" transform="scale(1 1) rotate(0) translate(4 978)">
<title>models_diagram</title>
<polygon fill="transparent" stroke="transparent" points="-4,4 -4,-978 894.7346,-978 894.7346,4 -4,4"/>
<!-- _diagram_info -->
<g id="node1" class="node">
<title>_diagram_info</title>
<text text-anchor="start" x="8" y="-945.6" font-family="Times,serif" font-size="13.00" fill="#000000">Models diagram</text>
<text text-anchor="start" x="8" y="-932.6" font-family="Times,serif" font-size="13.00" fill="#000000">Date: Mar 29 2018 &#45; 13:59</text>
<text text-anchor="start" x="8" y="-919.6" font-family="Times,serif" font-size="13.00" fill="#000000">Migration version: 20180322102832</text>
<text text-anchor="start" x="8" y="-906.6" font-family="Times,serif" font-size="13.00" fill="#000000">Generated by RailRoady 1.5.3</text>
<text text-anchor="start" x="8" y="-893.6" font-family="Times,serif" font-size="13.00" fill="#000000">http://railroady.prestonlee.com</text>
</g>
<!-- ApplicationRecord -->
<g id="node2" class="node">
<title>ApplicationRecord</title>
<ellipse fill="none" stroke="#000000" cx="302.6877" cy="-923.5" rx="77.2916" ry="18"/>
<text text-anchor="middle" x="302.6877" y="-919.3" font-family="Times,serif" font-size="14.00" fill="#000000">ApplicationRecord</text>
</g>
<!-- Group -->
<g id="node3" class="node">
<title>Group</title>
<path fill="none" stroke="#000000" d="M657.1824,-873.5C657.1824,-873.5 766.1931,-873.5 766.1931,-873.5 772.1931,-873.5 778.1931,-879.5 778.1931,-885.5 778.1931,-885.5 778.1931,-961.5 778.1931,-961.5 778.1931,-967.5 772.1931,-973.5 766.1931,-973.5 766.1931,-973.5 657.1824,-973.5 657.1824,-973.5 651.1824,-973.5 645.1824,-967.5 645.1824,-961.5 645.1824,-961.5 645.1824,-885.5 645.1824,-885.5 645.1824,-879.5 651.1824,-873.5 657.1824,-873.5"/>
<text text-anchor="middle" x="711.6877" y="-958.3" font-family="Times,serif" font-size="14.00" fill="#000000">Group</text>
<polyline fill="none" stroke="#000000" points="645.1824,-951.5 778.1931,-951.5 "/>
<text text-anchor="start" x="653.1824" y="-936.3" font-family="Times,serif" font-size="14.00" fill="#000000">id :bigint(20)</text>
<text text-anchor="start" x="653.1824" y="-922.3" font-family="Times,serif" font-size="14.00" fill="#000000">name :varchar(255)</text>
<text text-anchor="start" x="653.1824" y="-908.3" font-family="Times,serif" font-size="14.00" fill="#000000">address :text</text>
<text text-anchor="start" x="653.1824" y="-894.3" font-family="Times,serif" font-size="14.00" fill="#000000">created_at :datetime</text>
<text text-anchor="start" x="653.1824" y="-880.3" font-family="Times,serif" font-size="14.00" fill="#000000">updated_at :datetime</text>
</g>
<!-- Hire -->
<g id="node4" class="node">
<title>Hire</title>
<path fill="none" stroke="#000000" d="M671.7112,-165.5C671.7112,-165.5 799.6643,-165.5 799.6643,-165.5 805.6643,-165.5 811.6643,-171.5 811.6643,-177.5 811.6643,-177.5 811.6643,-337.5 811.6643,-337.5 811.6643,-343.5 805.6643,-349.5 799.6643,-349.5 799.6643,-349.5 671.7112,-349.5 671.7112,-349.5 665.7112,-349.5 659.7112,-343.5 659.7112,-337.5 659.7112,-337.5 659.7112,-177.5 659.7112,-177.5 659.7112,-171.5 665.7112,-165.5 671.7112,-165.5"/>
<text text-anchor="middle" x="735.6877" y="-334.3" font-family="Times,serif" font-size="14.00" fill="#000000">Hire</text>
<polyline fill="none" stroke="#000000" points="659.7112,-327.5 811.6643,-327.5 "/>
<text text-anchor="start" x="667.7112" y="-312.3" font-family="Times,serif" font-size="14.00" fill="#000000">group_id :int(11)</text>
<text text-anchor="start" x="667.7112" y="-298.3" font-family="Times,serif" font-size="14.00" fill="#000000">user_id :bigint(20)</text>
<text text-anchor="start" x="667.7112" y="-284.3" font-family="Times,serif" font-size="14.00" fill="#000000">collect_date :datetime</text>
<text text-anchor="start" x="667.7112" y="-270.3" font-family="Times,serif" font-size="14.00" fill="#000000">return_date :datetime</text>
<text text-anchor="start" x="667.7112" y="-256.3" font-family="Times,serif" font-size="14.00" fill="#000000">status :int(11)</text>
<text text-anchor="start" x="667.7112" y="-242.3" font-family="Times,serif" font-size="14.00" fill="#000000">band :int(11)</text>
<text text-anchor="start" x="667.7112" y="-228.3" font-family="Times,serif" font-size="14.00" fill="#000000">reference :text</text>
<text text-anchor="start" x="667.7112" y="-214.3" font-family="Times,serif" font-size="14.00" fill="#000000">invoice_number :int(11)</text>
<text text-anchor="start" x="667.7112" y="-200.3" font-family="Times,serif" font-size="14.00" fill="#000000">created_at :datetime</text>
<text text-anchor="start" x="667.7112" y="-186.3" font-family="Times,serif" font-size="14.00" fill="#000000">updated_at :datetime</text>
<text text-anchor="start" x="667.7112" y="-172.3" font-family="Times,serif" font-size="14.00" fill="#000000">id :bigint(20)</text>
</g>
<!-- Group&#45;&gt;Hire -->
<g id="edge2" class="edge">
<title>Group&#45;&gt;Hire</title>
<path fill="none" stroke="#ac38cc" d="M673.1336,-866.2111C668.4197,-856.797 664.3376,-846.8793 661.6877,-837 609.7592,-643.3989 609.9161,-579.6431 661.6877,-386 664.1059,-376.9554 667.3304,-367.8873 671.0833,-358.9848"/>
<ellipse fill="none" stroke="#ac38cc" cx="674.9922" cy="-869.7596" rx="4" ry="4"/>
<polygon fill="#ac38cc" stroke="#ac38cc" points="671.1145,-358.9145 679.2864,-351.6023 673.1442,-354.345 675.1739,-349.7755 675.1739,-349.7755 675.1739,-349.7755 673.1442,-354.345 671.0613,-347.9488 671.1145,-358.9145 671.1145,-358.9145"/>
</g>
<!-- User -->
<g id="node13" class="node">
<title>User</title>
<path fill="none" stroke="#000000" d="M682.6409,-386.5C682.6409,-386.5 878.7346,-386.5 878.7346,-386.5 884.7346,-386.5 890.7346,-392.5 890.7346,-398.5 890.7346,-398.5 890.7346,-824.5 890.7346,-824.5 890.7346,-830.5 884.7346,-836.5 878.7346,-836.5 878.7346,-836.5 682.6409,-836.5 682.6409,-836.5 676.6409,-836.5 670.6409,-830.5 670.6409,-824.5 670.6409,-824.5 670.6409,-398.5 670.6409,-398.5 670.6409,-392.5 676.6409,-386.5 682.6409,-386.5"/>
<text text-anchor="middle" x="780.6877" y="-821.3" font-family="Times,serif" font-size="14.00" fill="#000000">User</text>
<polyline fill="none" stroke="#000000" points="670.6409,-814.5 890.7346,-814.5 "/>
<text text-anchor="start" x="678.6409" y="-799.3" font-family="Times,serif" font-size="14.00" fill="#000000">tokens :text</text>
<text text-anchor="start" x="678.6409" y="-785.3" font-family="Times,serif" font-size="14.00" fill="#000000">group_id :int(11)</text>
<text text-anchor="start" x="678.6409" y="-771.3" font-family="Times,serif" font-size="14.00" fill="#000000">role :varchar(255)</text>
<text text-anchor="start" x="678.6409" y="-757.3" font-family="Times,serif" font-size="14.00" fill="#000000">username :varchar(255)</text>
<text text-anchor="start" x="678.6409" y="-743.3" font-family="Times,serif" font-size="14.00" fill="#000000">name :varchar(255)</text>
<text text-anchor="start" x="678.6409" y="-729.3" font-family="Times,serif" font-size="14.00" fill="#000000">surname :varchar(255)</text>
<text text-anchor="start" x="678.6409" y="-715.3" font-family="Times,serif" font-size="14.00" fill="#000000">telephone :varchar(255)</text>
<text text-anchor="start" x="678.6409" y="-701.3" font-family="Times,serif" font-size="14.00" fill="#000000">confirm_success_url :varchar(255)</text>
<text text-anchor="start" x="678.6409" y="-687.3" font-family="Times,serif" font-size="14.00" fill="#000000">provider :varchar(255)</text>
<text text-anchor="start" x="678.6409" y="-673.3" font-family="Times,serif" font-size="14.00" fill="#000000">uid :varchar(255)</text>
<text text-anchor="start" x="678.6409" y="-659.3" font-family="Times,serif" font-size="14.00" fill="#000000">email :varchar(255)</text>
<text text-anchor="start" x="678.6409" y="-645.3" font-family="Times,serif" font-size="14.00" fill="#000000">encrypted_password :varchar(255)</text>
<text text-anchor="start" x="678.6409" y="-631.3" font-family="Times,serif" font-size="14.00" fill="#000000">created_at :datetime</text>
<text text-anchor="start" x="678.6409" y="-617.3" font-family="Times,serif" font-size="14.00" fill="#000000">updated_at :datetime</text>
<text text-anchor="start" x="678.6409" y="-603.3" font-family="Times,serif" font-size="14.00" fill="#000000">reset_password_token :varchar(255)</text>
<text text-anchor="start" x="678.6409" y="-589.3" font-family="Times,serif" font-size="14.00" fill="#000000">reset_password_sent_at :datetime</text>
<text text-anchor="start" x="678.6409" y="-575.3" font-family="Times,serif" font-size="14.00" fill="#000000">remember_created_at :datetime</text>
<text text-anchor="start" x="678.6409" y="-561.3" font-family="Times,serif" font-size="14.00" fill="#000000">sign_in_count :int(11)</text>
<text text-anchor="start" x="678.6409" y="-547.3" font-family="Times,serif" font-size="14.00" fill="#000000">current_sign_in_at :datetime</text>
<text text-anchor="start" x="678.6409" y="-533.3" font-family="Times,serif" font-size="14.00" fill="#000000">last_sign_in_at :datetime</text>
<text text-anchor="start" x="678.6409" y="-519.3" font-family="Times,serif" font-size="14.00" fill="#000000">current_sign_in_ip :varchar(255)</text>
<text text-anchor="start" x="678.6409" y="-505.3" font-family="Times,serif" font-size="14.00" fill="#000000">last_sign_in_ip :varchar(255)</text>
<text text-anchor="start" x="678.6409" y="-491.3" font-family="Times,serif" font-size="14.00" fill="#000000">confirmation_token :varchar(255)</text>
<text text-anchor="start" x="678.6409" y="-477.3" font-family="Times,serif" font-size="14.00" fill="#000000">confirmed_at :datetime</text>
<text text-anchor="start" x="678.6409" y="-463.3" font-family="Times,serif" font-size="14.00" fill="#000000">confirmation_sent_at :datetime</text>
<text text-anchor="start" x="678.6409" y="-449.3" font-family="Times,serif" font-size="14.00" fill="#000000">unconfirmed_email :varchar(255)</text>
<text text-anchor="start" x="678.6409" y="-435.3" font-family="Times,serif" font-size="14.00" fill="#000000">failed_attempts :int(11)</text>
<text text-anchor="start" x="678.6409" y="-421.3" font-family="Times,serif" font-size="14.00" fill="#000000">unlock_token :varchar(255)</text>
<text text-anchor="start" x="678.6409" y="-407.3" font-family="Times,serif" font-size="14.00" fill="#000000">locked_at :datetime</text>
<text text-anchor="start" x="678.6409" y="-393.3" font-family="Times,serif" font-size="14.00" fill="#000000">id :bigint(20)</text>
</g>
<!-- Group&#45;&gt;User -->
<g id="edge1" class="edge">
<title>Group&#45;&gt;User</title>
<path fill="none" stroke="#1eb74a" d="M724.5353,-865.4067C725.8575,-859.4279 727.251,-853.1271 728.7004,-846.5732"/>
<ellipse fill="none" stroke="#1eb74a" cx="723.6376" cy="-869.4662" rx="4" ry="4"/>
<polygon fill="#1eb74a" stroke="#1eb74a" points="728.7028,-846.5619 735.2561,-837.7696 729.7825,-841.6799 730.8623,-836.7978 730.8623,-836.7978 730.8623,-836.7978 729.7825,-841.6799 726.4684,-835.8261 728.7028,-846.5619 728.7028,-846.5619"/>
</g>
<!-- Loan -->
<g id="node7" class="node">
<title>Loan</title>
<path fill="none" stroke="#000000" d="M518.6375,-.5C518.6375,-.5 644.738,-.5 644.738,-.5 650.738,-.5 656.738,-6.5 656.738,-12.5 656.738,-12.5 656.738,-116.5 656.738,-116.5 656.738,-122.5 650.738,-128.5 644.738,-128.5 644.738,-128.5 518.6375,-128.5 518.6375,-128.5 512.6375,-128.5 506.6375,-122.5 506.6375,-116.5 506.6375,-116.5 506.6375,-12.5 506.6375,-12.5 506.6375,-6.5 512.6375,-.5 518.6375,-.5"/>
<text text-anchor="middle" x="581.6877" y="-113.3" font-family="Times,serif" font-size="14.00" fill="#000000">Loan</text>
<polyline fill="none" stroke="#000000" points="506.6375,-106.5 656.738,-106.5 "/>
<text text-anchor="start" x="514.6375" y="-91.3" font-family="Times,serif" font-size="14.00" fill="#000000">date_out :datetime</text>
<text text-anchor="start" x="514.6375" y="-77.3" font-family="Times,serif" font-size="14.00" fill="#000000">hire_id :bigint(20)</text>
<text text-anchor="start" x="514.6375" y="-63.3" font-family="Times,serif" font-size="14.00" fill="#000000">name_tag :varchar(255)</text>
<text text-anchor="start" x="514.6375" y="-49.3" font-family="Times,serif" font-size="14.00" fill="#000000">id :bigint(20)</text>
<text text-anchor="start" x="514.6375" y="-35.3" font-family="Times,serif" font-size="14.00" fill="#000000">date_back :datetime</text>
<text text-anchor="start" x="514.6375" y="-21.3" font-family="Times,serif" font-size="14.00" fill="#000000">created_at :datetime</text>
<text text-anchor="start" x="514.6375" y="-7.3" font-family="Times,serif" font-size="14.00" fill="#000000">updated_at :datetime</text>
</g>
<!-- Hire&#45;&gt;Loan -->
<g id="edge3" class="edge">
<title>Hire&#45;&gt;Loan</title>
<path fill="none" stroke="#2e8bc7" d="M656.9634,-158.8389C650.9397,-151.2898 644.9302,-143.7584 639.0823,-136.4295"/>
<ellipse fill="none" stroke="#2e8bc7" cx="659.5757" cy="-162.1129" rx="4" ry="4"/>
<polygon fill="#2e8bc7" stroke="#2e8bc7" points="639.0442,-136.3817 636.3245,-125.7584 635.9256,-132.4734 632.8071,-128.5651 632.8071,-128.5651 632.8071,-128.5651 635.9256,-132.4734 629.2896,-131.3718 639.0442,-136.3817 639.0442,-136.3817"/>
</g>
<!-- Order -->
<g id="node9" class="node">
<title>Order</title>
<path fill="none" stroke="#000000" d="M687.1824,-.5C687.1824,-.5 796.1931,-.5 796.1931,-.5 802.1931,-.5 808.1931,-6.5 808.1931,-12.5 808.1931,-12.5 808.1931,-116.5 808.1931,-116.5 808.1931,-122.5 802.1931,-128.5 796.1931,-128.5 796.1931,-128.5 687.1824,-128.5 687.1824,-128.5 681.1824,-128.5 675.1824,-122.5 675.1824,-116.5 675.1824,-116.5 675.1824,-12.5 675.1824,-12.5 675.1824,-6.5 681.1824,-.5 687.1824,-.5"/>
<text text-anchor="middle" x="741.6877" y="-113.3" font-family="Times,serif" font-size="14.00" fill="#000000">Order</text>
<polyline fill="none" stroke="#000000" points="675.1824,-106.5 808.1931,-106.5 "/>
<text text-anchor="start" x="683.1824" y="-91.3" font-family="Times,serif" font-size="14.00" fill="#000000">booked :int(11)</text>
<text text-anchor="start" x="683.1824" y="-77.3" font-family="Times,serif" font-size="14.00" fill="#000000">hire_id :bigint(20)</text>
<text text-anchor="start" x="683.1824" y="-63.3" font-family="Times,serif" font-size="14.00" fill="#000000">request :int(11)</text>
<text text-anchor="start" x="683.1824" y="-49.3" font-family="Times,serif" font-size="14.00" fill="#000000">id :bigint(20)</text>
<text text-anchor="start" x="683.1824" y="-35.3" font-family="Times,serif" font-size="14.00" fill="#000000">created_at :datetime</text>
<text text-anchor="start" x="683.1824" y="-21.3" font-family="Times,serif" font-size="14.00" fill="#000000">updated_at :datetime</text>
<text text-anchor="start" x="683.1824" y="-7.3" font-family="Times,serif" font-size="14.00" fill="#000000">item_id :bigint(20)</text>
</g>
<!-- Hire&#45;&gt;Order -->
<g id="edge4" class="edge">
<title>Hire&#45;&gt;Order</title>
<path fill="none" stroke="#477dec" d="M738.8092,-157.0937C739.0022,-150.8843 739.1946,-144.6964 739.3831,-138.6332"/>
<ellipse fill="none" stroke="#477dec" cx="738.6803" cy="-161.2414" rx="4" ry="4"/>
<polygon fill="#477dec" stroke="#477dec" points="739.3853,-138.5603 744.1939,-128.705 739.5407,-133.5627 739.6961,-128.5651 739.6961,-128.5651 739.6961,-128.5651 739.5407,-133.5627 735.1983,-128.4253 739.3853,-138.5603 739.3853,-138.5603"/>
</g>
<!-- Item -->
<g id="node5" class="node">
<title>Item</title>
<path fill="none" stroke="#000000" d="M397.7444,-519.5C397.7444,-519.5 531.6311,-519.5 531.6311,-519.5 537.6311,-519.5 543.6311,-525.5 543.6311,-531.5 543.6311,-531.5 543.6311,-691.5 543.6311,-691.5 543.6311,-697.5 537.6311,-703.5 531.6311,-703.5 531.6311,-703.5 397.7444,-703.5 397.7444,-703.5 391.7444,-703.5 385.7444,-697.5 385.7444,-691.5 385.7444,-691.5 385.7444,-531.5 385.7444,-531.5 385.7444,-525.5 391.7444,-519.5 397.7444,-519.5"/>
<text text-anchor="middle" x="464.6877" y="-688.3" font-family="Times,serif" font-size="14.00" fill="#000000">Item</text>
<polyline fill="none" stroke="#000000" points="385.7444,-681.5 543.6311,-681.5 "/>
<text text-anchor="start" x="393.7444" y="-666.3" font-family="Times,serif" font-size="14.00" fill="#000000">updated_at :datetime</text>
<text text-anchor="start" x="393.7444" y="-652.3" font-family="Times,serif" font-size="14.00" fill="#000000">description :varchar(255)</text>
<text text-anchor="start" x="393.7444" y="-638.3" font-family="Times,serif" font-size="14.00" fill="#000000">size :varchar(255)</text>
<text text-anchor="start" x="393.7444" y="-624.3" font-family="Times,serif" font-size="14.00" fill="#000000">band_price :float</text>
<text text-anchor="start" x="393.7444" y="-610.3" font-family="Times,serif" font-size="14.00" fill="#000000">sale_price :float</text>
<text text-anchor="start" x="393.7444" y="-596.3" font-family="Times,serif" font-size="14.00" fill="#000000">saleable :tinyint(1)</text>
<text text-anchor="start" x="393.7444" y="-582.3" font-family="Times,serif" font-size="14.00" fill="#000000">browseable :tinyint(1)</text>
<text text-anchor="start" x="393.7444" y="-568.3" font-family="Times,serif" font-size="14.00" fill="#000000">has_stock :tinyint(1)</text>
<text text-anchor="start" x="393.7444" y="-554.3" font-family="Times,serif" font-size="14.00" fill="#000000">category :varchar(255)</text>
<text text-anchor="start" x="393.7444" y="-540.3" font-family="Times,serif" font-size="14.00" fill="#000000">created_at :datetime</text>
<text text-anchor="start" x="393.7444" y="-526.3" font-family="Times,serif" font-size="14.00" fill="#000000">id :bigint(20)</text>
</g>
<!-- ItemPack -->
<g id="node6" class="node">
<title>ItemPack</title>
<path fill="none" stroke="#000000" d="M196.3147,-7.5C196.3147,-7.5 311.0608,-7.5 311.0608,-7.5 317.0608,-7.5 323.0608,-13.5 323.0608,-19.5 323.0608,-19.5 323.0608,-109.5 323.0608,-109.5 323.0608,-115.5 317.0608,-121.5 311.0608,-121.5 311.0608,-121.5 196.3147,-121.5 196.3147,-121.5 190.3147,-121.5 184.3147,-115.5 184.3147,-109.5 184.3147,-109.5 184.3147,-19.5 184.3147,-19.5 184.3147,-13.5 190.3147,-7.5 196.3147,-7.5"/>
<text text-anchor="middle" x="253.6877" y="-106.3" font-family="Times,serif" font-size="14.00" fill="#000000">ItemPack</text>
<polyline fill="none" stroke="#000000" points="184.3147,-99.5 323.0608,-99.5 "/>
<text text-anchor="start" x="192.3147" y="-84.3" font-family="Times,serif" font-size="14.00" fill="#000000">id :bigint(20)</text>
<text text-anchor="start" x="192.3147" y="-70.3" font-family="Times,serif" font-size="14.00" fill="#000000">pack_id :bigint(20)</text>
<text text-anchor="start" x="192.3147" y="-56.3" font-family="Times,serif" font-size="14.00" fill="#000000">item_id :bigint(20)</text>
<text text-anchor="start" x="192.3147" y="-42.3" font-family="Times,serif" font-size="14.00" fill="#000000">item_quantity :int(11)</text>
<text text-anchor="start" x="192.3147" y="-28.3" font-family="Times,serif" font-size="14.00" fill="#000000">created_at :datetime</text>
<text text-anchor="start" x="192.3147" y="-14.3" font-family="Times,serif" font-size="14.00" fill="#000000">updated_at :datetime</text>
</g>
<!-- Item&#45;&gt;ItemPack -->
<g id="edge7" class="edge">
<title>Item&#45;&gt;ItemPack</title>
<path fill="none" stroke="#b7aaa4" d="M380.1367,-523.2401C340.0928,-475.7632 296.0155,-413.9284 272.6877,-350 246.6906,-278.7563 244.9435,-190.9498 247.7687,-131.6727"/>
<ellipse fill="none" stroke="#b7aaa4" cx="382.9114" cy="-526.5007" rx="4" ry="4"/>
<polygon fill="#b7aaa4" stroke="#b7aaa4" points="247.769,-131.666 252.7947,-121.9196 248.035,-126.673 248.3011,-121.6801 248.3011,-121.6801 248.3011,-121.6801 248.035,-126.673 243.8075,-121.4406 247.769,-131.666 247.769,-131.666"/>
</g>
<!-- Item&#45;&gt;Order -->
<g id="edge5" class="edge">
<title>Item&#45;&gt;Order</title>
<path fill="none" stroke="#c79377" d="M519.7492,-511.9075C544.9523,-463.8834 573.9684,-404.9045 595.6877,-350 627.2414,-270.2354 608.6327,-239.7622 650.6877,-165 656.1769,-155.2419 662.7679,-145.6403 669.8617,-136.474"/>
<ellipse fill="none" stroke="#c79377" cx="517.7639" cy="-515.6759" rx="4" ry="4"/>
<polygon fill="#c79377" stroke="#c79377" points="669.9634,-136.3469 679.7241,-131.3489 673.0868,-132.4424 676.2101,-128.5379 676.2101,-128.5379 676.2101,-128.5379 673.0868,-132.4424 672.6961,-125.7269 669.9634,-136.3469 669.9634,-136.3469"/>
</g>
<!-- Pack -->
<g id="node10" class="node">
<title>Pack</title>
<path fill="none" stroke="#000000" d="M294.1824,-214.5C294.1824,-214.5 403.1931,-214.5 403.1931,-214.5 409.1931,-214.5 415.1931,-220.5 415.1931,-226.5 415.1931,-226.5 415.1931,-288.5 415.1931,-288.5 415.1931,-294.5 409.1931,-300.5 403.1931,-300.5 403.1931,-300.5 294.1824,-300.5 294.1824,-300.5 288.1824,-300.5 282.1824,-294.5 282.1824,-288.5 282.1824,-288.5 282.1824,-226.5 282.1824,-226.5 282.1824,-220.5 288.1824,-214.5 294.1824,-214.5"/>
<text text-anchor="middle" x="348.6877" y="-285.3" font-family="Times,serif" font-size="14.00" fill="#000000">Pack</text>
<polyline fill="none" stroke="#000000" points="282.1824,-278.5 415.1931,-278.5 "/>
<text text-anchor="start" x="290.1824" y="-263.3" font-family="Times,serif" font-size="14.00" fill="#000000">id :bigint(20)</text>
<text text-anchor="start" x="290.1824" y="-249.3" font-family="Times,serif" font-size="14.00" fill="#000000">name :varchar(255)</text>
<text text-anchor="start" x="290.1824" y="-235.3" font-family="Times,serif" font-size="14.00" fill="#000000">created_at :datetime</text>
<text text-anchor="start" x="290.1824" y="-221.3" font-family="Times,serif" font-size="14.00" fill="#000000">updated_at :datetime</text>
</g>
<!-- Item&#45;&gt;Pack -->
<g id="edge8" class="edge">
<title>Item&#45;&gt;Pack</title>
<path fill="none" stroke="#ed8b83" d="M431.356,-509.7808C410.0522,-444.7673 383.2913,-363.1004 366.0891,-310.6041"/>
<polygon fill="#ed8b83" stroke="#ed8b83" points="431.3989,-509.912 430.2367,-520.8161 432.9559,-514.6634 434.5129,-519.4148 434.5129,-519.4148 434.5129,-519.4148 432.9559,-514.6634 438.7892,-518.0135 431.3989,-509.912 431.3989,-509.912"/>
<polygon fill="#ed8b83" stroke="#ed8b83" points="366.0002,-310.3327 367.1625,-299.4285 364.4432,-305.5812 362.8862,-300.8298 362.8862,-300.8298 362.8862,-300.8298 364.4432,-305.5812 358.61,-302.2311 366.0002,-310.3327 366.0002,-310.3327"/>
</g>
<!-- Stock -->
<g id="node12" class="node">
<title>Stock</title>
<path fill="none" stroke="#000000" d="M445.0754,-172.5C445.0754,-172.5 574.3,-172.5 574.3,-172.5 580.3,-172.5 586.3,-178.5 586.3,-184.5 586.3,-184.5 586.3,-330.5 586.3,-330.5 586.3,-336.5 580.3,-342.5 574.3,-342.5 574.3,-342.5 445.0754,-342.5 445.0754,-342.5 439.0754,-342.5 433.0754,-336.5 433.0754,-330.5 433.0754,-330.5 433.0754,-184.5 433.0754,-184.5 433.0754,-178.5 439.0754,-172.5 445.0754,-172.5"/>
<text text-anchor="middle" x="509.6877" y="-327.3" font-family="Times,serif" font-size="14.00" fill="#000000">Stock</text>
<polyline fill="none" stroke="#000000" points="433.0754,-320.5 586.3,-320.5 "/>
<text text-anchor="start" x="441.0754" y="-305.3" font-family="Times,serif" font-size="14.00" fill="#000000">updated_at :datetime</text>
<text text-anchor="start" x="441.0754" y="-291.3" font-family="Times,serif" font-size="14.00" fill="#000000">barcode :varchar(255)</text>
<text text-anchor="start" x="441.0754" y="-277.3" font-family="Times,serif" font-size="14.00" fill="#000000">item_id :int(11)</text>
<text text-anchor="start" x="441.0754" y="-263.3" font-family="Times,serif" font-size="14.00" fill="#000000">size :varchar(255)</text>
<text text-anchor="start" x="441.0754" y="-249.3" font-family="Times,serif" font-size="14.00" fill="#000000">make :varchar(255)</text>
<text text-anchor="start" x="441.0754" y="-235.3" font-family="Times,serif" font-size="14.00" fill="#000000">model :varchar(255)</text>
<text text-anchor="start" x="441.0754" y="-221.3" font-family="Times,serif" font-size="14.00" fill="#000000">condition :int(11)</text>
<text text-anchor="start" x="441.0754" y="-207.3" font-family="Times,serif" font-size="14.00" fill="#000000">comments :varchar(255)</text>
<text text-anchor="start" x="441.0754" y="-193.3" font-family="Times,serif" font-size="14.00" fill="#000000">created_at :datetime</text>
<text text-anchor="start" x="441.0754" y="-179.3" font-family="Times,serif" font-size="14.00" fill="#000000">id :bigint(20)</text>
</g>
<!-- Item&#45;&gt;Stock -->
<g id="edge6" class="edge">
<title>Item&#45;&gt;Stock</title>
<path fill="none" stroke="#d5dc2b" d="M477.4225,-511.3198C483.7463,-461.5724 491.3471,-401.7799 497.5826,-352.727"/>
<ellipse fill="none" stroke="#d5dc2b" cx="476.898" cy="-515.4467" rx="4" ry="4"/>
<polygon fill="#d5dc2b" stroke="#d5dc2b" points="497.5899,-352.6686 503.3152,-343.316 498.2205,-347.7086 498.8511,-342.7485 498.8511,-342.7485 498.8511,-342.7485 498.2205,-347.7086 494.387,-342.181 497.5899,-352.6686 497.5899,-352.6686"/>
</g>
<!-- Multistock -->
<g id="node8" class="node">
<title>Multistock</title>
<path fill="none" stroke="#000000" d="M353.0457,-14.5C353.0457,-14.5 476.3298,-14.5 476.3298,-14.5 482.3298,-14.5 488.3298,-20.5 488.3298,-26.5 488.3298,-26.5 488.3298,-102.5 488.3298,-102.5 488.3298,-108.5 482.3298,-114.5 476.3298,-114.5 476.3298,-114.5 353.0457,-114.5 353.0457,-114.5 347.0457,-114.5 341.0457,-108.5 341.0457,-102.5 341.0457,-102.5 341.0457,-26.5 341.0457,-26.5 341.0457,-20.5 347.0457,-14.5 353.0457,-14.5"/>
<text text-anchor="middle" x="414.6877" y="-99.3" font-family="Times,serif" font-size="14.00" fill="#000000">Multistock</text>
<polyline fill="none" stroke="#000000" points="341.0457,-92.5 488.3298,-92.5 "/>
<text text-anchor="start" x="349.0457" y="-77.3" font-family="Times,serif" font-size="14.00" fill="#000000">id :bigint(20)</text>
<text text-anchor="start" x="349.0457" y="-63.3" font-family="Times,serif" font-size="14.00" fill="#000000">stock_id :bigint(20)</text>
<text text-anchor="start" x="349.0457" y="-49.3" font-family="Times,serif" font-size="14.00" fill="#000000">actual_quantity :int(11)</text>
<text text-anchor="start" x="349.0457" y="-35.3" font-family="Times,serif" font-size="14.00" fill="#000000">created_at :datetime</text>
<text text-anchor="start" x="349.0457" y="-21.3" font-family="Times,serif" font-size="14.00" fill="#000000">updated_at :datetime</text>
</g>
<!-- Pack&#45;&gt;ItemPack -->
<g id="edge9" class="edge">
<title>Pack&#45;&gt;ItemPack</title>
<path fill="none" stroke="#3c6879" d="M323.8125,-206.964C312.3286,-183.6336 298.5427,-155.6264 286.2447,-130.6421"/>
<ellipse fill="none" stroke="#3c6879" cx="325.6014" cy="-210.5982" rx="4" ry="4"/>
<polygon fill="#3c6879" stroke="#3c6879" points="286.2046,-130.5604 285.8256,-119.601 283.9964,-126.0744 281.7882,-121.5884 281.7882,-121.5884 281.7882,-121.5884 283.9964,-126.0744 277.7508,-123.5757 286.2046,-130.5604 286.2046,-130.5604"/>
</g>
<!-- Size -->
<g id="node11" class="node">
<title>Size</title>
<path fill="none" stroke="#000000" d="M410.1824,-880.5C410.1824,-880.5 519.1931,-880.5 519.1931,-880.5 525.1931,-880.5 531.1931,-886.5 531.1931,-892.5 531.1931,-892.5 531.1931,-954.5 531.1931,-954.5 531.1931,-960.5 525.1931,-966.5 519.1931,-966.5 519.1931,-966.5 410.1824,-966.5 410.1824,-966.5 404.1824,-966.5 398.1824,-960.5 398.1824,-954.5 398.1824,-954.5 398.1824,-892.5 398.1824,-892.5 398.1824,-886.5 404.1824,-880.5 410.1824,-880.5"/>
<text text-anchor="middle" x="464.6877" y="-951.3" font-family="Times,serif" font-size="14.00" fill="#000000">Size</text>
<polyline fill="none" stroke="#000000" points="398.1824,-944.5 531.1931,-944.5 "/>
<text text-anchor="start" x="406.1824" y="-929.3" font-family="Times,serif" font-size="14.00" fill="#000000">id :bigint(20)</text>
<text text-anchor="start" x="406.1824" y="-915.3" font-family="Times,serif" font-size="14.00" fill="#000000">size :varchar(255)</text>
<text text-anchor="start" x="406.1824" y="-901.3" font-family="Times,serif" font-size="14.00" fill="#000000">created_at :datetime</text>
<text text-anchor="start" x="406.1824" y="-887.3" font-family="Times,serif" font-size="14.00" fill="#000000">updated_at :datetime</text>
</g>
<!-- Size&#45;&gt;Item -->
<g id="edge10" class="edge">
<title>Size&#45;&gt;Item</title>
<path fill="none" stroke="#bb62b7" d="M464.6877,-872.1926C464.6877,-829.331 464.6877,-766.8879 464.6877,-713.8601"/>
<ellipse fill="none" stroke="#bb62b7" cx="464.6878" cy="-876.4453" rx="4" ry="4"/>
<polygon fill="#bb62b7" stroke="#bb62b7" points="464.6878,-713.7324 469.1877,-703.7324 464.6878,-708.7324 464.6877,-703.7324 464.6877,-703.7324 464.6877,-703.7324 464.6878,-708.7324 460.1877,-703.7325 464.6878,-713.7324 464.6878,-713.7324"/>
</g>
<!-- Stock&#45;&gt;Loan -->
<g id="edge11" class="edge">
<title>Stock&#45;&gt;Loan</title>
<path fill="none" stroke="#05fa91" d="M544.3031,-164.7115C547.8565,-155.1866 551.4279,-145.6133 554.8785,-136.3636"/>
<ellipse fill="none" stroke="#05fa91" cx="542.8757" cy="-168.5379" rx="4" ry="4"/>
<ellipse fill="#05fa91" stroke="#05fa91" cx="556.3475" cy="-132.4259" rx="4" ry="4"/>
</g>
<!-- Stock&#45;&gt;Multistock -->
<g id="edge12" class="edge">
<title>Stock&#45;&gt;Multistock</title>
<path fill="none" stroke="#ebcfb7" d="M464.0967,-164.8781C456.9021,-150.2617 449.649,-135.5265 442.999,-122.0166"/>
<ellipse fill="none" stroke="#ebcfb7" cx="465.9763" cy="-168.6968" rx="4" ry="4"/>
<ellipse fill="#ebcfb7" stroke="#ebcfb7" cx="441.1374" cy="-118.2345" rx="4" ry="4"/>
</g>
<!-- User&#45;&gt;Hire -->
<g id="edge13" class="edge">
<title>User&#45;&gt;Hire</title>
<path fill="none" stroke="#101c11" d="M750.7868,-376.279C750.0773,-370.6979 749.3789,-365.2038 748.6948,-359.8224"/>
<polygon fill="#101c11" stroke="#101c11" points="750.7999,-376.3834 747.597,-386.871 751.4305,-381.3434 752.0611,-386.3035 752.0611,-386.3035 752.0611,-386.3035 751.4305,-381.3434 756.5252,-385.736 750.7999,-376.3834 750.7999,-376.3834"/>
<polygon fill="#101c11" stroke="#101c11" points="748.659,-359.5396 751.8619,-349.052 748.0284,-354.5796 747.3978,-349.6195 747.3978,-349.6195 747.3978,-349.6195 748.0284,-354.5796 742.9338,-350.187 748.659,-359.5396 748.659,-359.5396"/>
</g>
</g>
</svg>
