<?xml version="1.0" encoding="UTF-8" standalone="no"?>
<!DOCTYPE svg PUBLIC "-//W3C//DTD SVG 1.1//EN"
 "http://www.w3.org/Graphics/SVG/1.1/DTD/svg11.dtd">
<!-- Generated by graphviz version 2.40.1 (20161225.0304)
 -->
<!-- Title: models_diagram Pages: 1 -->
<svg width="543pt" height="297pt"
 viewBox="0.00 0.00 542.75 297.00" xmlns="http://www.w3.org/2000/svg" xmlns:xlink="http://www.w3.org/1999/xlink">
<g id="graph0" class="graph" transform="scale(1 1) rotate(0) translate(4 293)">
<title>models_diagram</title>
<polygon fill="transparent" stroke="transparent" points="-4,4 -4,-293 538.7523,-293 538.7523,4 -4,4"/>
<!-- _diagram_info -->
<g id="node1" class="node">
<title>_diagram_info</title>
<text text-anchor="start" x="8" y="-274.6" font-family="Times,serif" font-size="13.00" fill="#000000">Models diagram</text>
<text text-anchor="start" x="8" y="-261.6" font-family="Times,serif" font-size="13.00" fill="#000000">Date: Mar 06 2018 &#45; 14:28</text>
<text text-anchor="start" x="8" y="-248.6" font-family="Times,serif" font-size="13.00" fill="#000000">Migration version: 20180306133113</text>
<text text-anchor="start" x="8" y="-235.6" font-family="Times,serif" font-size="13.00" fill="#000000">Generated by RailRoady 1.5.3</text>
<text text-anchor="start" x="8" y="-222.6" font-family="Times,serif" font-size="13.00" fill="#000000">http://railroady.prestonlee.com</text>
</g>
<!-- ApplicationRecord -->
<g id="node2" class="node">
<title>ApplicationRecord</title>
<ellipse fill="none" stroke="#000000" cx="302.4497" cy="-252.5" rx="77.2916" ry="18"/>
<text text-anchor="middle" x="302.4497" y="-248.3" font-family="Times,serif" font-size="14.00" fill="#000000">ApplicationRecord</text>
</g>
<!-- Group -->
<g id="node3" class="node">
<title>Group</title>
<ellipse fill="none" stroke="#000000" cx="430.4497" cy="-252.5" rx="32.9081" ry="18"/>
<text text-anchor="middle" x="430.4497" y="-248.3" font-family="Times,serif" font-size="14.00" fill="#000000">Group</text>
</g>
<!-- Hire -->
<g id="node4" class="node">
<title>Hire</title>
<ellipse fill="none" stroke="#000000" cx="429.4497" cy="-90" rx="27" ry="18"/>
<text text-anchor="middle" x="429.4497" y="-85.8" font-family="Times,serif" font-size="14.00" fill="#000000">Hire</text>
</g>
<!-- Group&#45;&gt;Hire -->
<g id="edge2" class="edge">
<title>Group&#45;&gt;Hire</title>
<path fill="none" stroke="#c16a70" d="M425.9753,-226.2874C422.7777,-204.3189 419.3778,-172.1239 421.4497,-144 422.0764,-135.4935 423.2512,-126.2939 424.5113,-117.9399"/>
<ellipse fill="none" stroke="#c16a70" cx="426.6203" cy="-230.5078" rx="4" ry="4"/>
<polygon fill="#c16a70" stroke="#c16a70" points="424.5337,-117.8 430.5613,-108.6394 425.3259,-112.8632 426.1182,-107.9264 426.1182,-107.9264 426.1182,-107.9264 425.3259,-112.8632 421.675,-107.2133 424.5337,-117.8 424.5337,-117.8"/>
</g>
<!-- User -->
<g id="node7" class="node">
<title>User</title>
<ellipse fill="none" stroke="#000000" cx="457.4497" cy="-162" rx="27" ry="18"/>
<text text-anchor="middle" x="457.4497" y="-157.8" font-family="Times,serif" font-size="14.00" fill="#000000">User</text>
</g>
<!-- Group&#45;&gt;User -->
<g id="edge1" class="edge">
<title>Group&#45;&gt;User</title>
<path fill="none" stroke="#c1ca57" d="M438.1436,-226.7112C441.6017,-215.1202 445.6877,-201.4245 449.2082,-189.6242"/>
<ellipse fill="none" stroke="#c1ca57" cx="436.9276" cy="-230.7871" rx="4" ry="4"/>
<polygon fill="#c1ca57" stroke="#c1ca57" points="449.2675,-189.4254 456.4386,-181.1293 450.697,-184.6341 452.1265,-179.8427 452.1265,-179.8427 452.1265,-179.8427 450.697,-184.6341 447.8143,-178.5562 449.2675,-189.4254 449.2675,-189.4254"/>
</g>
<!-- Loan -->
<g id="node5" class="node">
<title>Loan</title>
<ellipse fill="none" stroke="#000000" cx="379.4497" cy="-18" rx="28.0565" ry="18"/>
<text text-anchor="middle" x="379.4497" y="-13.8" font-family="Times,serif" font-size="14.00" fill="#000000">Loan</text>
</g>
<!-- Hire&#45;&gt;Loan -->
<g id="edge3" class="edge">
<title>Hire&#45;&gt;Loan</title>
<path fill="none" stroke="#9e7123" d="M413.5213,-67.0631C408.2309,-59.4449 402.3134,-50.9237 396.9134,-43.1478"/>
<ellipse fill="none" stroke="#9e7123" cx="415.8223" cy="-70.3766" rx="4" ry="4"/>
<polygon fill="#9e7123" stroke="#9e7123" points="396.8016,-42.9866 394.7937,-32.2061 393.9496,-38.8798 391.0976,-34.7729 391.0976,-34.7729 391.0976,-34.7729 393.9496,-38.8798 387.4014,-37.3397 396.8016,-42.9866 396.8016,-42.9866"/>
</g>
<!-- OrderedSize -->
<g id="node6" class="node">
<title>OrderedSize</title>
<ellipse fill="none" stroke="#000000" cx="480.4497" cy="-18" rx="54.1058" ry="18"/>
<text text-anchor="middle" x="480.4497" y="-13.8" font-family="Times,serif" font-size="14.00" fill="#000000">OrderedSize</text>
</g>
<!-- Hire&#45;&gt;OrderedSize -->
<g id="edge4" class="edge">
<title>Hire&#45;&gt;OrderedSize</title>
<path fill="none" stroke="#b4c0c6" d="M445.7998,-66.9175C450.9817,-59.602 456.7447,-51.4659 462.0597,-43.9623"/>
<ellipse fill="none" stroke="#b4c0c6" cx="443.3345" cy="-70.398" rx="4" ry="4"/>
<polygon fill="#b4c0c6" stroke="#b4c0c6" points="462.2516,-43.6914 471.7039,-38.1323 465.1417,-39.6113 468.0318,-35.5312 468.0318,-35.5312 468.0318,-35.5312 465.1417,-39.6113 464.3597,-32.9301 462.2516,-43.6914 462.2516,-43.6914"/>
</g>
<!-- User&#45;&gt;Hire -->
<g id="edge5" class="edge">
<title>User&#45;&gt;Hire</title>
<path fill="none" stroke="#dadb52" d="M446.9641,-135.037C444.6707,-129.1398 442.2428,-122.8966 439.9489,-116.998"/>
<polygon fill="#dadb52" stroke="#dadb52" points="447.0472,-135.2508 446.4777,-146.2018 448.8594,-139.9108 450.6717,-144.5708 450.6717,-144.5708 450.6717,-144.5708 448.8594,-139.9108 454.8657,-142.9398 447.0472,-135.2508 447.0472,-135.2508"/>
<polygon fill="#dadb52" stroke="#dadb52" points="439.8869,-116.8383 440.4564,-105.8872 438.0746,-112.1783 436.2624,-107.5182 436.2624,-107.5182 436.2624,-107.5182 438.0746,-112.1783 432.0683,-109.1493 439.8869,-116.8383 439.8869,-116.8383"/>
</g>
</g>
</svg>
