<?xml version="1.0" encoding="UTF-8" standalone="no"?>
<!DOCTYPE svg PUBLIC "-//W3C//DTD SVG 1.1//EN"
 "http://www.w3.org/Graphics/SVG/1.1/DTD/svg11.dtd">
<!-- Generated by graphviz version 2.40.1 (20161225.0304)
 -->
<!-- Title: models_diagram Pages: 1 -->
<svg width="647pt" height="926pt"
 viewBox="0.00 0.00 647.50 926.00" xmlns="http://www.w3.org/2000/svg" xmlns:xlink="http://www.w3.org/1999/xlink">
<g id="graph0" class="graph" transform="scale(1 1) rotate(0) translate(4 922)">
<title>models_diagram</title>
<polygon fill="transparent" stroke="transparent" points="-4,4 -4,-922 643.4966,-922 643.4966,4 -4,4"/>
<!-- _diagram_info -->
<g id="node1" class="node">
<title>_diagram_info</title>
<text text-anchor="start" x="8" y="-903.6" font-family="Times,serif" font-size="13.00" fill="#000000">Models diagram</text>
<text text-anchor="start" x="8" y="-890.6" font-family="Times,serif" font-size="13.00" fill="#000000">Date: Mar 06 2018 &#45; 14:28</text>
<text text-anchor="start" x="8" y="-877.6" font-family="Times,serif" font-size="13.00" fill="#000000">Migration version: 20180306133113</text>
<text text-anchor="start" x="8" y="-864.6" font-family="Times,serif" font-size="13.00" fill="#000000">Generated by RailRoady 1.5.3</text>
<text text-anchor="start" x="8" y="-851.6" font-family="Times,serif" font-size="13.00" fill="#000000">http://railroady.prestonlee.com</text>
</g>
<!-- ApplicationRecord -->
<g id="node2" class="node">
<title>ApplicationRecord</title>
<ellipse fill="none" stroke="#000000" cx="302.4497" cy="-881.5" rx="77.2916" ry="18"/>
<text text-anchor="middle" x="302.4497" y="-877.3" font-family="Times,serif" font-size="14.00" fill="#000000">ApplicationRecord</text>
</g>
<!-- Group -->
<g id="node3" class="node">
<title>Group</title>
<path fill="none" stroke="#000000" d="M409.4512,-845.5C409.4512,-845.5 511.4482,-845.5 511.4482,-845.5 517.4482,-845.5 523.4482,-851.5 523.4482,-857.5 523.4482,-857.5 523.4482,-905.5 523.4482,-905.5 523.4482,-911.5 517.4482,-917.5 511.4482,-917.5 511.4482,-917.5 409.4512,-917.5 409.4512,-917.5 403.4512,-917.5 397.4512,-911.5 397.4512,-905.5 397.4512,-905.5 397.4512,-857.5 397.4512,-857.5 397.4512,-851.5 403.4512,-845.5 409.4512,-845.5"/>
<text text-anchor="middle" x="460.4497" y="-902.3" font-family="Times,serif" font-size="14.00" fill="#000000">Group</text>
<polyline fill="none" stroke="#000000" points="397.4512,-895.5 523.4482,-895.5 "/>
<text text-anchor="start" x="405.4512" y="-880.3" font-family="Times,serif" font-size="14.00" fill="#000000">id :bigint(20)</text>
<text text-anchor="start" x="405.4512" y="-866.3" font-family="Times,serif" font-size="14.00" fill="#000000">name :varchar(255)</text>
<text text-anchor="start" x="405.4512" y="-852.3" font-family="Times,serif" font-size="14.00" fill="#000000">address :text</text>
</g>
<!-- Hire -->
<g id="node4" class="node">
<title>Hire</title>
<path fill="none" stroke="#000000" d="M396.4731,-165.5C396.4731,-165.5 524.4263,-165.5 524.4263,-165.5 530.4263,-165.5 536.4263,-171.5 536.4263,-177.5 536.4263,-177.5 536.4263,-309.5 536.4263,-309.5 536.4263,-315.5 530.4263,-321.5 524.4263,-321.5 524.4263,-321.5 396.4731,-321.5 396.4731,-321.5 390.4731,-321.5 384.4731,-315.5 384.4731,-309.5 384.4731,-309.5 384.4731,-177.5 384.4731,-177.5 384.4731,-171.5 390.4731,-165.5 396.4731,-165.5"/>
<text text-anchor="middle" x="460.4497" y="-306.3" font-family="Times,serif" font-size="14.00" fill="#000000">Hire</text>
<polyline fill="none" stroke="#000000" points="384.4731,-299.5 536.4263,-299.5 "/>
<text text-anchor="start" x="392.4731" y="-284.3" font-family="Times,serif" font-size="14.00" fill="#000000">group_id :int(11)</text>
<text text-anchor="start" x="392.4731" y="-270.3" font-family="Times,serif" font-size="14.00" fill="#000000">user_id :bigint(20)</text>
<text text-anchor="start" x="392.4731" y="-256.3" font-family="Times,serif" font-size="14.00" fill="#000000">collect_date :datetime</text>
<text text-anchor="start" x="392.4731" y="-242.3" font-family="Times,serif" font-size="14.00" fill="#000000">return_date :datetime</text>
<text text-anchor="start" x="392.4731" y="-228.3" font-family="Times,serif" font-size="14.00" fill="#000000">status :int(11)</text>
<text text-anchor="start" x="392.4731" y="-214.3" font-family="Times,serif" font-size="14.00" fill="#000000">band :int(11)</text>
<text text-anchor="start" x="392.4731" y="-200.3" font-family="Times,serif" font-size="14.00" fill="#000000">reference :text</text>
<text text-anchor="start" x="392.4731" y="-186.3" font-family="Times,serif" font-size="14.00" fill="#000000">invoice_number :int(11)</text>
<text text-anchor="start" x="392.4731" y="-172.3" font-family="Times,serif" font-size="14.00" fill="#000000">id :bigint(20)</text>
</g>
<!-- Group&#45;&gt;Hire -->
<g id="edge2" class="edge">
<title>Group&#45;&gt;Hire</title>
<path fill="none" stroke="#aa97f0" d="M424.6912,-838.5305C418.8306,-829.306 413.6375,-819.2372 410.4497,-809 350.8554,-617.6195 369.4767,-554.2121 410.4497,-358 412.3057,-349.1119 414.8916,-340.0692 417.919,-331.1599"/>
<ellipse fill="none" stroke="#aa97f0" cx="427.0606" cy="-842.0814" rx="4" ry="4"/>
<polygon fill="#aa97f0" stroke="#aa97f0" points="417.9867,-330.9711 425.5994,-323.0782 419.6752,-326.2648 421.3637,-321.5585 421.3637,-321.5585 421.3637,-321.5585 419.6752,-326.2648 417.1281,-320.0388 417.9867,-330.9711 417.9867,-330.9711"/>
</g>
<!-- User -->
<g id="node7" class="node">
<title>User</title>
<path fill="none" stroke="#000000" d="M431.4028,-358.5C431.4028,-358.5 627.4966,-358.5 627.4966,-358.5 633.4966,-358.5 639.4966,-364.5 639.4966,-370.5 639.4966,-370.5 639.4966,-796.5 639.4966,-796.5 639.4966,-802.5 633.4966,-808.5 627.4966,-808.5 627.4966,-808.5 431.4028,-808.5 431.4028,-808.5 425.4028,-808.5 419.4028,-802.5 419.4028,-796.5 419.4028,-796.5 419.4028,-370.5 419.4028,-370.5 419.4028,-364.5 425.4028,-358.5 431.4028,-358.5"/>
<text text-anchor="middle" x="529.4497" y="-793.3" font-family="Times,serif" font-size="14.00" fill="#000000">User</text>
<polyline fill="none" stroke="#000000" points="419.4028,-786.5 639.4966,-786.5 "/>
<text text-anchor="start" x="427.4028" y="-771.3" font-family="Times,serif" font-size="14.00" fill="#000000">confirm_success_url :varchar(255)</text>
<text text-anchor="start" x="427.4028" y="-757.3" font-family="Times,serif" font-size="14.00" fill="#000000">group_id :int(11)</text>
<text text-anchor="start" x="427.4028" y="-743.3" font-family="Times,serif" font-size="14.00" fill="#000000">role :varchar(255)</text>
<text text-anchor="start" x="427.4028" y="-729.3" font-family="Times,serif" font-size="14.00" fill="#000000">username :varchar(255)</text>
<text text-anchor="start" x="427.4028" y="-715.3" font-family="Times,serif" font-size="14.00" fill="#000000">name :varchar(255)</text>
<text text-anchor="start" x="427.4028" y="-701.3" font-family="Times,serif" font-size="14.00" fill="#000000">surname :varchar(255)</text>
<text text-anchor="start" x="427.4028" y="-687.3" font-family="Times,serif" font-size="14.00" fill="#000000">telephone :varchar(255)</text>
<text text-anchor="start" x="427.4028" y="-673.3" font-family="Times,serif" font-size="14.00" fill="#000000">provider :varchar(255)</text>
<text text-anchor="start" x="427.4028" y="-659.3" font-family="Times,serif" font-size="14.00" fill="#000000">uid :varchar(255)</text>
<text text-anchor="start" x="427.4028" y="-645.3" font-family="Times,serif" font-size="14.00" fill="#000000">email :varchar(255)</text>
<text text-anchor="start" x="427.4028" y="-631.3" font-family="Times,serif" font-size="14.00" fill="#000000">encrypted_password :varchar(255)</text>
<text text-anchor="start" x="427.4028" y="-617.3" font-family="Times,serif" font-size="14.00" fill="#000000">created_at :datetime</text>
<text text-anchor="start" x="427.4028" y="-603.3" font-family="Times,serif" font-size="14.00" fill="#000000">updated_at :datetime</text>
<text text-anchor="start" x="427.4028" y="-589.3" font-family="Times,serif" font-size="14.00" fill="#000000">reset_password_token :varchar(255)</text>
<text text-anchor="start" x="427.4028" y="-575.3" font-family="Times,serif" font-size="14.00" fill="#000000">reset_password_sent_at :datetime</text>
<text text-anchor="start" x="427.4028" y="-561.3" font-family="Times,serif" font-size="14.00" fill="#000000">remember_created_at :datetime</text>
<text text-anchor="start" x="427.4028" y="-547.3" font-family="Times,serif" font-size="14.00" fill="#000000">sign_in_count :int(11)</text>
<text text-anchor="start" x="427.4028" y="-533.3" font-family="Times,serif" font-size="14.00" fill="#000000">current_sign_in_at :datetime</text>
<text text-anchor="start" x="427.4028" y="-519.3" font-family="Times,serif" font-size="14.00" fill="#000000">last_sign_in_at :datetime</text>
<text text-anchor="start" x="427.4028" y="-505.3" font-family="Times,serif" font-size="14.00" fill="#000000">current_sign_in_ip :varchar(255)</text>
<text text-anchor="start" x="427.4028" y="-491.3" font-family="Times,serif" font-size="14.00" fill="#000000">last_sign_in_ip :varchar(255)</text>
<text text-anchor="start" x="427.4028" y="-477.3" font-family="Times,serif" font-size="14.00" fill="#000000">confirmation_token :varchar(255)</text>
<text text-anchor="start" x="427.4028" y="-463.3" font-family="Times,serif" font-size="14.00" fill="#000000">confirmed_at :datetime</text>
<text text-anchor="start" x="427.4028" y="-449.3" font-family="Times,serif" font-size="14.00" fill="#000000">confirmation_sent_at :datetime</text>
<text text-anchor="start" x="427.4028" y="-435.3" font-family="Times,serif" font-size="14.00" fill="#000000">unconfirmed_email :varchar(255)</text>
<text text-anchor="start" x="427.4028" y="-421.3" font-family="Times,serif" font-size="14.00" fill="#000000">failed_attempts :int(11)</text>
<text text-anchor="start" x="427.4028" y="-407.3" font-family="Times,serif" font-size="14.00" fill="#000000">unlock_token :varchar(255)</text>
<text text-anchor="start" x="427.4028" y="-393.3" font-family="Times,serif" font-size="14.00" fill="#000000">locked_at :datetime</text>
<text text-anchor="start" x="427.4028" y="-379.3" font-family="Times,serif" font-size="14.00" fill="#000000">tokens :text</text>
<text text-anchor="start" x="427.4028" y="-365.3" font-family="Times,serif" font-size="14.00" fill="#000000">id :bigint(20)</text>
</g>
<!-- Group&#45;&gt;User -->
<g id="edge1" class="edge">
<title>Group&#45;&gt;User</title>
<path fill="none" stroke="#7b878d" d="M470.7018,-837.2229C472.0549,-831.3791 473.5086,-825.1006 475.0421,-818.4776"/>
<ellipse fill="none" stroke="#7b878d" cx="469.7438" cy="-841.3604" rx="4" ry="4"/>
<polygon fill="#7b878d" stroke="#7b878d" points="475.0877,-818.2803 481.7276,-809.5532 476.2157,-813.4092 477.3436,-808.5381 477.3436,-808.5381 477.3436,-808.5381 476.2157,-813.4092 472.9596,-807.5229 475.0877,-818.2803 475.0877,-818.2803"/>
</g>
<!-- Loan -->
<g id="node5" class="node">
<title>Loan</title>
<path fill="none" stroke="#000000" d="M321.3994,-.5C321.3994,-.5 447.5,-.5 447.5,-.5 453.5,-.5 459.5,-6.5 459.5,-12.5 459.5,-12.5 459.5,-116.5 459.5,-116.5 459.5,-122.5 453.5,-128.5 447.5,-128.5 447.5,-128.5 321.3994,-128.5 321.3994,-128.5 315.3994,-128.5 309.3994,-122.5 309.3994,-116.5 309.3994,-116.5 309.3994,-12.5 309.3994,-12.5 309.3994,-6.5 315.3994,-.5 321.3994,-.5"/>
<text text-anchor="middle" x="384.4497" y="-113.3" font-family="Times,serif" font-size="14.00" fill="#000000">Loan</text>
<polyline fill="none" stroke="#000000" points="309.3994,-106.5 459.5,-106.5 "/>
<text text-anchor="start" x="317.3994" y="-91.3" font-family="Times,serif" font-size="14.00" fill="#000000">date_out :datetime</text>
<text text-anchor="start" x="317.3994" y="-77.3" font-family="Times,serif" font-size="14.00" fill="#000000">hire_id :bigint(20)</text>
<text text-anchor="start" x="317.3994" y="-63.3" font-family="Times,serif" font-size="14.00" fill="#000000">name_tag :varchar(255)</text>
<text text-anchor="start" x="317.3994" y="-49.3" font-family="Times,serif" font-size="14.00" fill="#000000">id :bigint(20)</text>
<text text-anchor="start" x="317.3994" y="-35.3" font-family="Times,serif" font-size="14.00" fill="#000000">date_back :datetime</text>
<text text-anchor="start" x="317.3994" y="-21.3" font-family="Times,serif" font-size="14.00" fill="#000000">created_at :datetime</text>
<text text-anchor="start" x="317.3994" y="-7.3" font-family="Times,serif" font-size="14.00" fill="#000000">updated_at :datetime</text>
</g>
<!-- Hire&#45;&gt;Loan -->
<g id="edge3" class="edge">
<title>Hire&#45;&gt;Loan</title>
<path fill="none" stroke="#e172b3" d="M424.0497,-157.7685C421.2521,-151.1794 418.443,-144.563 415.683,-138.0626"/>
<ellipse fill="none" stroke="#e172b3" cx="425.6623" cy="-161.5665" rx="4" ry="4"/>
<polygon fill="#e172b3" stroke="#e172b3" points="415.5898,-137.8429 415.8237,-126.8795 413.6357,-133.2406 411.6816,-128.6382 411.6816,-128.6382 411.6816,-128.6382 413.6357,-133.2406 407.5395,-130.3969 415.5898,-137.8429 415.5898,-137.8429"/>
</g>
<!-- OrderedSize -->
<g id="node6" class="node">
<title>OrderedSize</title>
<path fill="none" stroke="#000000" d="M489.9307,-21.5C489.9307,-21.5 584.9688,-21.5 584.9688,-21.5 590.9688,-21.5 596.9688,-27.5 596.9688,-33.5 596.9688,-33.5 596.9688,-95.5 596.9688,-95.5 596.9688,-101.5 590.9688,-107.5 584.9688,-107.5 584.9688,-107.5 489.9307,-107.5 489.9307,-107.5 483.9307,-107.5 477.9307,-101.5 477.9307,-95.5 477.9307,-95.5 477.9307,-33.5 477.9307,-33.5 477.9307,-27.5 483.9307,-21.5 489.9307,-21.5"/>
<text text-anchor="middle" x="537.4497" y="-92.3" font-family="Times,serif" font-size="14.00" fill="#000000">OrderedSize</text>
<polyline fill="none" stroke="#000000" points="477.9307,-85.5 596.9688,-85.5 "/>
<text text-anchor="start" x="485.9307" y="-70.3" font-family="Times,serif" font-size="14.00" fill="#000000">id :bigint(20)</text>
<text text-anchor="start" x="485.9307" y="-56.3" font-family="Times,serif" font-size="14.00" fill="#000000">hire_id :bigint(20)</text>
<text text-anchor="start" x="485.9307" y="-42.3" font-family="Times,serif" font-size="14.00" fill="#000000">request :int(11)</text>
<text text-anchor="start" x="485.9307" y="-28.3" font-family="Times,serif" font-size="14.00" fill="#000000">booked :int(11)</text>
</g>
<!-- Hire&#45;&gt;OrderedSize -->
<g id="edge4" class="edge">
<title>Hire&#45;&gt;OrderedSize</title>
<path fill="none" stroke="#0e783f" d="M497.3095,-157.8129C503.2723,-143.9513 509.2877,-129.9675 514.7821,-117.1948"/>
<ellipse fill="none" stroke="#0e783f" cx="495.6917" cy="-161.5739" rx="4" ry="4"/>
<polygon fill="#0e783f" stroke="#0e783f" points="514.921,-116.8717 523.0064,-109.4638 516.8968,-112.2787 518.8727,-107.6856 518.8727,-107.6856 518.8727,-107.6856 516.8968,-112.2787 514.7389,-105.9074 514.921,-116.8717 514.921,-116.8717"/>
</g>
<!-- User&#45;&gt;Hire -->
<g id="edge5" class="edge">
<title>User&#45;&gt;Hire</title>
<path fill="none" stroke="#72763c" d="M481.6848,-348.1366C480.5579,-342.5836 479.4532,-337.1405 478.3768,-331.8364"/>
<polygon fill="#72763c" stroke="#72763c" points="481.7248,-348.3343 479.3037,-359.0295 482.7193,-353.2344 483.7138,-358.1345 483.7138,-358.1345 483.7138,-358.1345 482.7193,-353.2344 488.1239,-357.2395 481.7248,-348.3343 481.7248,-348.3343"/>
<polygon fill="#72763c" stroke="#72763c" points="478.3321,-331.6157 480.7532,-320.9204 477.3376,-326.7156 476.3431,-321.8155 476.3431,-321.8155 476.3431,-321.8155 477.3376,-326.7156 471.933,-322.7105 478.3321,-331.6157 478.3321,-331.6157"/>
</g>
</g>
</svg>
